<svg xmlns="http://www.w3.org/2000/svg" width="17" height="17" viewBox="0 0 17 17">
    <path fill="#000" fill-rule="evenodd" d="M10.945 8.772a.375.375 0 0 1 0-.544l5.822-5.822A.839.839 0 0 0 17 1.863a.839.839 0 0 0-.233-.543L15.68.233A.839.839 0 0 0 15.137 0a.705.705 0 0 0-.543.233L8.772 6.055a.375.375 0 0 1-.544 0L2.406.233A.839.839 0 0 0 1.863 0a.839.839 0 0 0-.543.233L.233 1.32A.839.839 0 0 0 0 1.863c0 .155.078.388.233.543l5.822 5.822a.375.375 0 0 1 0 .544L.233 14.594a.839.839 0 0 0-.233.543c0 .155.078.388.233.543l1.087 1.087a.839.839 0 0 0 .543.233.839.839 0 0 0 .543-.233l5.822-5.822a.375.375 0 0 1 .544 0l5.822 5.822a.839.839 0 0 0 .543.233.839.839 0 0 0 .543-.233l1.087-1.087a.839.839 0 0 0 .233-.543.839.839 0 0 0-.233-.543l-5.822-5.822z"/>
</svg>
