<svg xmlns="http://www.w3.org/2000/svg" width="20" height="16" viewBox="0 0 20 16">
    <g fill="#000" fill-rule="evenodd">
        <path d="M20 .706C20 .282 19.667 0 19.167 0H.833C.333 0 0 .282 0 .706v1.412c0 .423.333.706.833.706h18.334c.5 0 .833-.283.833-.706V.706zM20 7.294c0-.423-.333-.706-.833-.706H.833c-.5 0-.833.283-.833.706v1.412c0 .423.333.706.833.706h18.334c.5 0 .833-.283.833-.706V7.294zM20 13.882c0-.423-.333-.706-.833-.706H.833c-.5 0-.833.283-.833.706v1.412c0 .424.333.706.833.706h18.334c.5 0 .833-.282.833-.706v-1.412z"/>
    </g>
</svg>
