<svg xmlns="http://www.w3.org/2000/svg" width="53" height="114" viewBox="0 0 53 114">
    <path fill="#000" fill-rule="nonzero" d="M10.497 59.298h7.948v9.65a1.78 1.78 0 0 0 1.76 1.842h4.04l-5.751 11.67-14.166 2.061a1.84 1.84 0 0 0-1.018 3.136l10.251 10.01-2.42 14.133a1.84 1.84 0 0 0 .73 1.799 1.833 1.833 0 0 0 1.933.14l12.67-6.674 12.671 6.674a1.835 1.835 0 0 0 2.664-1.939l-2.42-14.133 10.25-10.01a1.84 1.84 0 0 0-1.017-3.136l-14.166-2.06-5.75-11.67h4.038a1.774 1.774 0 0 0 1.761-1.842v-9.65h7.948c5.7 0 10.407-4.652 10.407-10.361V1.889A1.943 1.943 0 0 0 50.954 0H1.996A1.943 1.943 0 0 0 .09 1.889v47.048c0 5.71 4.708 10.361 10.407 10.361zM32.974 85.96l11.44 1.665-8.279 8.083a1.84 1.84 0 0 0-.527 1.628l1.954 11.414-10.233-5.389a1.83 1.83 0 0 0-1.708 0l-10.233 5.389 1.955-11.413a1.84 1.84 0 0 0-.528-1.628l-8.277-8.084 11.438-1.665a1.835 1.835 0 0 0 1.382-1.007l5.117-10.385 5.117 10.385c.267.543.784.92 1.382 1.007zM14.544 55.62V3.677h23.862v51.944H14.544zm16.29 11.492h-8.718v-7.815h8.718v7.815zM49.19 48.938c-.037 3.7-3.042 6.681-6.736 6.683h-.376V3.677h7.112v45.26zM3.761 3.678h7.112V55.62h-.376c-3.695-.002-6.7-2.983-6.736-6.683V3.678z"/>
</svg>
