<svg xmlns="http://www.w3.org/2000/svg" width="116" height="116" viewBox="0 0 116 116">
    <path fill="#000" fill-rule="nonzero" d="M81.588 59.257c12.324.014 22.311 10.002 22.326 22.328 0 12.331-9.996 22.327-22.326 22.327s-22.326-9.997-22.326-22.327c0-12.331 9.996-22.328 22.326-22.328zm0 40.928c10.267-.012 18.587-8.332 18.599-18.6 0-10.273-8.327-18.601-18.6-18.601-10.27 0-18.598 8.328-18.598 18.6 0 10.274 8.327 18.601 18.599 18.601zm30.229-26.367l3.398 5.156a4.74 4.74 0 0 1 0 5.224l-3.397 5.154c-.12.183-.179.399-.167.617l.341 6.193a4.748 4.748 0 0 1-2.598 4.496l-5.504 2.781a1.007 1.007 0 0 0-.45.449l-2.78 5.505a4.743 4.743 0 0 1-4.496 2.599l-6.193-.341a1.019 1.019 0 0 0-.616.166l-5.155 3.399a4.74 4.74 0 0 1-5.223 0l-5.153-3.399c-.183-.12-.4-.177-.617-.166l-6.194.34a4.746 4.746 0 0 1-4.495-2.599l-2.78-5.503a1.024 1.024 0 0 0-.451-.45l-5.504-2.779a4.745 4.745 0 0 1-2.599-4.494l.342-6.19a1 1 0 0 0-.167-.608l-3.398-5.135a4.657 4.657 0 0 1-.708-3.41H8.456a1.987 1.987 0 0 1-1.934-1.936v-6.916H1.863A1.906 1.906 0 0 1 0 70.058V55.979c0-5.355 4.216-9.633 9.397-9.633h17.557l4.244-23.688a13.652 13.652 0 0 1-3.621-9.304C27.577 5.987 33.362 0 40.473 0c7.11 0 12.897 6.002 12.897 13.368a13.613 13.613 0 0 1-3.608 9.272l4.231 23.706h17.555a9.119 9.119 0 0 1 6.254 2.423l1.175-.816a4.74 4.74 0 0 1 5.222 0l5.155 3.4c.182.122.398.18.617.167l6.193-.341a4.744 4.744 0 0 1 4.495 2.598l2.781 5.505c.099.194.256.351.45.45l5.504 2.78a4.746 4.746 0 0 1 2.598 4.497l-.342 6.193a1.02 1.02 0 0 0 .167.616zM40.473 3.716c-5.056 0-9.17 4.322-9.17 9.632s4.113 9.631 9.17 9.631c5.056 0 9.17-4.32 9.17-9.63 0-5.312-4.114-9.633-9.17-9.633zm-5.952 21.517l-3.78 21.113h19.465l-3.768-21.11a12.646 12.646 0 0 1-11.917-.003zM3.727 55.98v12.265H51.25l-.066-1.212a4.784 4.784 0 0 1 2.599-4.52l5.505-2.78c.194-.099.35-.256.45-.45l2.78-5.502a4.74 4.74 0 0 1 4.495-2.596l6.194.345c.217.015.432-.04.616-.156l.707-.447a5.397 5.397 0 0 0-2.982-.853H9.398c-3.127 0-5.671 2.607-5.671 5.906zm6.522 15.992v5.125h38.996l2.112-3.23c.12-.19.179-.414.167-.639l-.07-1.256H10.249zm101.854 10.174c.225-.34.225-.78.001-1.121l-3.398-5.154a4.777 4.777 0 0 1-.776-2.873l.34-6.194a1.017 1.017 0 0 0-.557-.964l-5.504-2.781a4.774 4.774 0 0 1-2.096-2.097l-2.78-5.503a1.02 1.02 0 0 0-.965-.558l-6.194.341a4.78 4.78 0 0 1-2.872-.777l-5.153-3.399a1.016 1.016 0 0 0-1.12 0l-5.154 3.399A4.78 4.78 0 0 1 73 55.24L66.81 54.9a1.02 1.02 0 0 0-.965.558l-2.78 5.504a4.71 4.71 0 0 1-2.097 2.097l-5.504 2.78c-.36.183-.58.561-.557.965l.34 6.193a4.777 4.777 0 0 1-.775 2.873l-3.399 5.155c-.224.34-.224.78 0 1.121l3.399 5.154a4.78 4.78 0 0 1 .775 2.874l-.341 6.193c-.022.404.196.783.558.965l5.503 2.78a4.71 4.71 0 0 1 2.097 2.097l2.78 5.504c.182.362.56.58.965.557l6.193-.341a4.778 4.778 0 0 1 2.872.777l5.154 3.398c.34.225.781.225 1.12 0l5.155-3.398a4.792 4.792 0 0 1 2.872-.776l6.194.341c.404.023.782-.196.964-.558l2.781-5.504a4.71 4.71 0 0 1 2.096-2.097l5.503-2.78c.362-.182.58-.561.558-.965l-.341-6.194a4.775 4.775 0 0 1 .777-2.873l3.397-5.154z"/>
</svg>
