<svg xmlns="http://www.w3.org/2000/svg" width="102" height="102" viewBox="0 0 102 102">
    <g fill="#000" fill-rule="evenodd">
        <path fill-rule="nonzero" d="M84.955 18V8.495A8.506 8.506 0 0 0 76.459 0H8.495A8.506 8.506 0 0 0 0 8.495v37.38a8.479 8.479 0 0 0 7.619 8.408l6.387 16.58a8.498 8.498 0 0 0 10.981 4.873l39.884-15.364a24.562 24.562 0 0 0 2.117 21.808l.976 1.562v16.505c0 .938.76 1.699 1.699 1.699h30.584c.938 0 1.699-.76 1.699-1.7V44.163a22.236 22.236 0 0 0-6.51-15.662L84.955 18zm0 10.162l5.156 13.386a5.097 5.097 0 0 1-2.926 6.587l-2.947 1.139c.47-1.072.714-2.23.717-3.398V28.162zM3.398 45.876V8.496a5.098 5.098 0 0 1 5.097-5.098H76.46a5.098 5.098 0 0 1 5.098 5.097v10.8h-.015l.015.039v26.542a5.16 5.16 0 0 1-.116.88L65.877 31.19a9.065 9.065 0 0 0-13.083 12.536l6.635 7.247H8.495a5.098 5.098 0 0 1-5.097-5.097zm21.767 8.495l-12.082 4.652-1.787-4.652h13.87zm-1.4 18.193a5.097 5.097 0 0 1-6.589-2.923l-2.866-7.454 20.282-7.816v-.01h27.952l2.208 2.407-40.987 15.796zm74.782 25.983H71.362V84.955h27.185v13.592zm0-16.99H70.606l-.737-1.178a21.188 21.188 0 0 1-.43-21.76 1.698 1.698 0 0 0-.223-1.992l-13.924-15.19a5.666 5.666 0 0 1 8.182-7.837L90.55 60.67l2.402-2.403-6.286-6.287 1.743-.68a8.496 8.496 0 0 0 4.871-10.976l-5.75-14.933 5.503 5.516a18.816 18.816 0 0 1 5.514 13.255v37.395z"/>
        <path fill-rule="nonzero" d="M19.37 23.787a4.418 4.418 0 0 0 4.417-4.417v-8.156a4.418 4.418 0 0 0-4.417-4.418h-8.156a4.418 4.418 0 0 0-4.418 4.418v8.156a4.418 4.418 0 0 0 4.418 4.417h8.156zm-9.175-4.417v-2.38h3.398v-3.397h-3.398v-2.379c0-.563.456-1.02 1.019-1.02h8.156c.562 0 1.02.457 1.02 1.02v2.379h-3.4v3.398h3.4v2.379a1.02 1.02 0 0 1-1.02 1.02h-8.156a1.02 1.02 0 0 1-1.02-1.02z"/>
        <path d="M8.495 28.885h6.797v3.398H8.495zM8.495 39.08h6.797v3.397H8.495zM39.08 39.08h6.796v3.397h-6.797zM18.69 28.885h6.796v3.398H18.69zM28.885 28.885h6.796v3.398h-6.796zM39.08 28.885h6.796v3.398h-6.797zM71.362 8.495h3.398v5.098h-3.398zM64.566 8.495h3.398v5.098h-3.398zM57.77 8.495h3.397v5.098H57.77zM50.973 8.495h3.398v5.098h-3.398zM74.76 88.353h3.398v3.398H74.76z"/>
    </g>
</svg>
