<svg xmlns="http://www.w3.org/2000/svg" width="105" height="102" viewBox="0 0 105 102">
    <g fill="#000" fill-rule="evenodd">
        <path fill-rule="nonzero" d="M75.439 45.981c-15.39 0-27.91 12.555-27.91 27.988 0 15.432 12.52 27.987 27.91 27.987s27.91-12.555 27.91-27.987c0-15.433-12.52-27.988-27.91-27.988zm0 51.861c-13.128 0-23.809-10.71-23.809-23.874 0-13.164 10.68-23.874 23.809-23.874 13.128 0 23.808 10.71 23.808 23.874 0 13.165-10.68 23.874-23.808 23.874zM27.91 56.019c15.39 0 27.91-12.555 27.91-27.988C55.82 12.6 43.3.045 27.91.045S0 12.6 0 28.032c0 15.432 12.52 27.987 27.91 27.987zm0-51.861c13.128 0 23.808 10.71 23.808 23.874 0 13.164-10.68 23.874-23.808 23.874S4.102 41.196 4.102 28.032c0-13.164 10.68-23.874 23.808-23.874z"/>
        <path d="M31.436 90.952h-5.073c-7.026 0-12.742-5.732-12.742-12.777v-4.206a2.054 2.054 0 0 0-2.05-2.057H7.422l8.429-8.452 8.771 8.796H19.87c-1.132 0-2.05.92-2.05 2.056v3.195c0 5.102 4.139 9.252 9.226 9.252h13.753c1.132 0 2.05-.92 2.05-2.056a2.054 2.054 0 0 0-2.05-2.057H27.045c-2.826 0-5.125-2.305-5.125-5.139v-1.138h7.655c.83 0 1.577-.501 1.894-1.27a2.061 2.061 0 0 0-.444-2.24L17.302 59.096a2.047 2.047 0 0 0-2.9 0L1.021 72.514a2.061 2.061 0 0 0-.445 2.241 2.051 2.051 0 0 0 1.895 1.27h7.047v2.15c0 9.313 7.556 16.89 16.844 16.89h5.073c1.132 0 2.05-.921 2.05-2.057a2.054 2.054 0 0 0-2.05-2.056zM42.691 92.222a2.068 2.068 0 0 0-2.004-1.267 2.073 2.073 0 0 0-1.851 1.456c-.25.82.052 1.741.741 2.249a2.066 2.066 0 0 0 2.303.094 2.077 2.077 0 0 0 .811-2.532zM104.844 29.063a2.051 2.051 0 0 0-1.895-1.27h-7.047v-2.15c0-9.312-7.556-16.89-16.844-16.89h-5.073c-1.133 0-2.051.922-2.051 2.057 0 1.136.918 2.057 2.05 2.057h5.074c7.026 0 12.742 5.731 12.742 12.777v4.206c0 1.136.918 2.056 2.05 2.056h4.148L89.57 40.36l-8.772-8.796h4.754c1.132 0 2.05-.921 2.05-2.057v-3.195c0-5.101-4.138-9.252-9.226-9.252H64.623c-1.132 0-2.05.921-2.05 2.057s.918 2.056 2.05 2.056h13.753c2.826 0 5.125 2.306 5.125 5.14v1.138h-7.654c-.83 0-1.578.5-1.895 1.27a2.061 2.061 0 0 0 .445 2.24L88.12 44.721a2.048 2.048 0 0 0 2.9 0l13.38-13.417a2.062 2.062 0 0 0 .444-2.241zM62.73 11.596a2.066 2.066 0 0 0 2.027 1.266 2.073 2.073 0 0 0 1.846-1.52 2.079 2.079 0 0 0-.813-2.223 2.065 2.065 0 0 0-2.274-.038 2.074 2.074 0 0 0-.787 2.515zM25.037 29.369H30.815a2.14 2.14 0 0 1 0 4.28h-8.82c-1.133 0-2.051.92-2.051 2.056 0 1.136.918 2.057 2.05 2.057h3.386v2.468c0 1.136.918 2.056 2.05 2.056 1.133 0 2.051-.92 2.051-2.056v-2.468h1.334c3.438 0 6.236-2.805 6.236-6.253s-2.798-6.253-6.236-6.253h-5.778a2.14 2.14 0 0 1 0-4.28h8.82c1.133 0 2.051-.921 2.051-2.057a2.054 2.054 0 0 0-2.05-2.056H29.48v-2.468a2.054 2.054 0 0 0-2.05-2.057c-1.133 0-2.051.921-2.051 2.057v2.468h-.343c-3.438 0-6.235 2.805-6.235 6.253s2.797 6.253 6.235 6.253zM85.62 81.507h-.001a2.034 2.034 0 0 0-2.352.291c-1.025.952-3.002 2.164-6.336 2-2.83-.142-5.063-1.873-6.516-4.053h7.275c1.132 0 2.05-.92 2.05-2.056a2.054 2.054 0 0 0-2.05-2.056h-8.991a8.657 8.657 0 0 1-.173-1.664c0-.639.086-1.323.25-2.022h8.914c1.132 0 2.05-.92 2.05-2.056a2.054 2.054 0 0 0-2.05-2.057h-7.026c1.453-2.009 3.594-3.56 6.267-3.695 3.333-.166 5.31 1.047 6.336 2a2.034 2.034 0 0 0 2.352.291 2.056 2.056 0 0 0 .42-3.312c-1.66-1.548-4.617-3.324-9.313-3.086-2.884.145-5.987 1.66-8.298 4.051a14.285 14.285 0 0 0-2.61 3.751h-4.51c-1.132 0-2.05.921-2.05 2.057 0 1.135.918 2.056 2.05 2.056h3.26c-.095.665-.144 1.34-.144 2.022 0 .56.037 1.115.1 1.664H61.31c-1.133 0-2.05.92-2.05 2.056 0 1.136.917 2.056 2.05 2.056h4.343a14.269 14.269 0 0 0 2.776 4.11c2.311 2.391 5.414 3.906 8.298 4.05.285.014.563.022.836.022 4.236 0 6.944-1.67 8.5-3.129 1.016-.951.781-2.629-.442-3.29z"/>
    </g>
</svg>
