<svg xmlns="http://www.w3.org/2000/svg" width="116" height="112" viewBox="0 0 116 112">
    <g fill="#000" fill-rule="evenodd">
        <path d="M1.813 97.55A1.807 1.807 0 0 1 0 95.744c0-5.978 4.877-10.84 10.875-10.84a1.807 1.807 0 1 1 0 3.612c-3.998 0-7.25 3.243-7.25 7.228 0 1-.81 1.806-1.813 1.806zM61.625 97.548a1.807 1.807 0 0 1-1.813-1.806c0-3.985-3.251-7.226-7.25-7.226a1.807 1.807 0 1 1 0-3.613c5.998 0 10.876 4.861 10.876 10.839 0 1-.81 1.806-1.813 1.806z"/>
        <path d="M23.563 88.516H10.874a1.807 1.807 0 1 1 0-3.613h12.688a1.807 1.807 0 1 1 0 3.613zM52.563 88.516H39.874a1.807 1.807 0 1 1 0-3.613h12.688a1.807 1.807 0 1 1 0 3.613zM1.814 110.194c-1 0-1.812-.808-1.812-1.807L0 95.742c0-.997.81-1.807 1.813-1.807 1 0 1.812.808 1.812 1.807l.002 12.645c0 .997-.81 1.807-1.813 1.807z"/>
        <path d="M3.627 112c-2 0-3.625-1.62-3.625-3.613 0-1 .81-1.806 1.812-1.806 1.003 0 1.813.807 1.813 1.806v.004c1.002 0 1.812.806 1.812 1.804S4.63 112 3.627 112zM59.813 112a1.807 1.807 0 1 1 0-3.613h.001c0-1 .81-1.806 1.813-1.806 1 0 1.81.807 1.81 1.806A3.623 3.623 0 0 1 59.813 112z"/>
        <path d="M61.625 110.194a1.807 1.807 0 0 1-1.813-1.807V95.742c0-1 .81-1.807 1.813-1.807s1.813.808 1.813 1.807v12.645c0 1-.81 1.807-1.813 1.807z"/>
        <path d="M59.813 112H3.624a1.807 1.807 0 1 1 0-3.613h56.188a1.807 1.807 0 1 1 0 3.613zM23.563 88.516a1.807 1.807 0 0 1-1.813-1.806v-6.928c0-1 .81-1.806 1.813-1.806 1.002 0 1.812.807 1.812 1.806v6.928c0 .999-.81 1.806-1.813 1.806zM39.875 88.516a1.807 1.807 0 0 1-1.813-1.806v-6.928c0-1 .81-1.806 1.813-1.806s1.813.807 1.813 1.806v6.928c0 .999-.81 1.806-1.813 1.806z"/>
        <path d="M31.719 83.097c-13.492 0-24.469-10.94-24.469-24.387 0-1 .81-1.807 1.813-1.807 1.002 0 1.812.807 1.812 1.807 0 11.454 9.351 20.774 20.844 20.774 11.492 0 20.843-9.32 20.843-20.774 0-1 .81-1.807 1.813-1.807s1.813.807 1.813 1.807c0 13.447-10.977 24.387-24.47 24.387zM59.813 47.871A1.807 1.807 0 0 1 58 46.065C58 31.622 46.21 19.87 31.719 19.87S5.437 31.621 5.437 46.065c0 .999-.81 1.806-1.812 1.806a1.807 1.807 0 0 1-1.813-1.806c0-16.436 13.416-29.807 29.907-29.807 16.49 0 29.906 13.371 29.906 29.807 0 .999-.81 1.806-1.813 1.806z"/>
        <path d="M9.063 60.516A1.807 1.807 0 0 1 7.25 58.71V48.238c0-1 .81-1.807 1.813-1.807 1.002 0 1.812.808 1.812 1.807V58.71c0 .999-.81 1.806-1.813 1.806zM54.375 60.516a1.807 1.807 0 0 1-1.813-1.806V47.735c0-.998.81-1.806 1.813-1.806s1.813.808 1.813 1.806V58.71c0 .999-.81 1.806-1.813 1.806z"/>
        <path d="M3.627 52.387c-.704 0-1.37-.408-1.666-1.091a1.802 1.802 0 0 1 .944-2.374l50.296-21.677a1.814 1.814 0 0 1 2.381.941 1.803 1.803 0 0 1-.944 2.374L4.343 52.237a1.76 1.76 0 0 1-.716.15z"/>
        <path d="M59.81 52.387c-.282 0-.57-.067-.84-.205L33.595 38.9a1.805 1.805 0 0 1-.764-2.44 1.823 1.823 0 0 1 2.449-.76l25.375 13.28a1.805 1.805 0 0 1-.844 3.407zM16.313 95.742a1.807 1.807 0 0 1-1.813-1.807V86.71c0-1 .81-1.807 1.813-1.807 1.002 0 1.812.807 1.812 1.807v7.225c0 1-.81 1.807-1.813 1.807zM47.125 95.742a1.807 1.807 0 0 1-1.813-1.807V86.71c0-1 .81-1.807 1.813-1.807s1.813.807 1.813 1.807v7.225c0 1-.81 1.807-1.813 1.807z"/>
        <path d="M31.719 101.161c-8.572 0-17.219-2.234-17.219-7.226 0-.999.81-1.806 1.813-1.806 1.002 0 1.812.807 1.812 1.806 0 .995 4.182 3.613 13.594 3.613 9.412 0 13.593-2.618 13.593-3.613 0-.999.81-1.806 1.813-1.806s1.813.807 1.813 1.806c0 4.992-8.648 7.226-17.22 7.226zM3.625 92.095a1.807 1.807 0 0 1-1.813-1.807V46.065c0-1 .81-1.807 1.813-1.807s1.813.807 1.813 1.807v44.223c0 1-.81 1.807-1.813 1.807zM59.813 92.095A1.807 1.807 0 0 1 58 90.288V46.065c0-1 .81-1.807 1.813-1.807 1.002 0 1.812.807 1.812 1.807v44.223c0 1-.81 1.807-1.813 1.807z"/>
        <path fill-rule="nonzero" d="M72.5 56a1.806 1.806 0 0 1-1.813-1.806V50.58h-3.624a1.807 1.807 0 0 1-1.813-1.807V1.806C65.25.807 66.06 0 67.063 0h47.124C115.19 0 116 .807 116 1.806v46.968c0 1-.81 1.807-1.813 1.807H83.802L73.31 55.81c-.255.125-.533.189-.81.189zm-3.625-9.032H72.5c1.003 0 1.813.807 1.813 1.806v2.496l8.25-4.11c.25-.127.53-.192.81-.192h29.002V3.613h-43.5v43.355z"/>
        <path fill-rule="nonzero" d="M99.026 39.742c-.283 0-.568-.067-.83-.2l-7.571-3.89-7.57 3.888a1.819 1.819 0 0 1-1.906-.15 1.807 1.807 0 0 1-.712-1.769l1.44-8.197-6.1-5.816c-.5-.478-.685-1.2-.473-1.856a1.817 1.817 0 0 1 1.471-1.238l8.454-1.2 3.776-7.484c.616-1.22 2.623-1.22 3.239 0l3.775 7.484 8.454 1.2c.688.1 1.257.578 1.472 1.238.213.658.028 1.38-.474 1.856l-6.1 5.816 1.44 8.197a1.809 1.809 0 0 1-1.785 2.12zm-8.401-7.929c.285 0 .57.067.83.201l5.157 2.648-.979-5.564a1.803 1.803 0 0 1 .533-1.618l4.105-3.913-5.698-.806a1.821 1.821 0 0 1-1.366-.977l-2.582-5.118-2.582 5.118c-.267.53-.778.893-1.366.977l-5.698.808 4.105 3.912a1.8 1.8 0 0 1 .533 1.619l-.98 5.564 5.158-2.648c.26-.136.545-.203.83-.203z"/>
    </g>
</svg>
