<svg xmlns="http://www.w3.org/2000/svg" width="123" height="107" viewBox="0 0 123 107">
    <g fill="#000" fill-rule="evenodd">
        <path fill-rule="nonzero" d="M114.56 6.882H48.264A1.815 1.815 0 0 0 46.452 8.7c0 1.004.811 1.818 1.812 1.818h66.296c2.655 0 4.815 2.167 4.815 4.83v43.897h-6.78a1.815 1.815 0 0 0-1.811 1.819c0 1.004.81 1.818 1.812 1.818h6.78v12.02c0 2.663-2.161 4.83-4.816 4.83H43.019v-16.85h62.476a1.815 1.815 0 0 0 1.813-1.818 1.815 1.815 0 0 0-1.813-1.818H43.02V4.886c0-2.693-2.185-4.885-4.87-4.885H4.87C2.185.001 0 2.193 0 4.886v97.227C0 104.807 2.185 107 4.87 107h33.278c2.686 0 4.87-2.192 4.87-4.886V83.368H56.87V96h-3.107c-3.078 0-5.582 2.511-5.582 5.598v3.583c0 1.004.812 1.818 1.813 1.818h37.465a1.815 1.815 0 0 0 1.812-1.818v-3.583c0-3.087-2.504-5.598-5.581-5.598h-3.108v-4.636a1.815 1.815 0 0 0-1.812-1.818 1.815 1.815 0 0 0-1.812 1.818V96H60.493V83.368h16.464v1.027c0 1.004.811 1.818 1.812 1.818a1.815 1.815 0 0 0 1.812-1.818v-1.027h33.979c4.653 0 8.44-3.798 8.44-8.466V15.349c0-4.669-3.786-8.467-8.44-8.467zM31.079 3.637l-1.604 1.867a2.11 2.11 0 0 1-1.602.736H14.979c-.633 0-1.227-.28-1.63-.769l-1.512-1.834h19.242zm8.315 98.476c0 .69-.559 1.25-1.246 1.25H4.87c-.687 0-1.245-.56-1.245-1.25v-1.34L14.29 88.537a4.074 4.074 0 0 0 .917-3.452l-1.964-10.137a1.812 1.812 0 1 0-3.554.713L11.653 85.8a.408.408 0 0 1-.092.345l-7.936 9.105V58.682l3.435 4.307c.04.05.068.11.08.173L8 67.48a1.811 1.811 0 1 0 3.555-.713l-.86-4.317a4.058 4.058 0 0 0-.805-1.733l-6.266-7.855V4.886c0-.688.56-1.249 1.246-1.249h2.262l3.424 4.152a5.716 5.716 0 0 0 4.423 2.088h12.894a5.728 5.728 0 0 0 4.348-2l3.643-4.24h2.284c.687 0 1.246.56 1.246 1.25v47.975l-6.265 7.855a4.06 4.06 0 0 0-.805 1.732l-4.513 22.636a4.076 4.076 0 0 0 .917 3.452l10.666 12.236v1.34zm0-6.864l-7.936-9.105a.408.408 0 0 1-.092-.345l4.513-22.637a.405.405 0 0 1 .08-.172l3.435-4.307v36.566zm39.375 4.387h4.92c1.079 0 1.956.88 1.956 1.962v1.764h-33.84v-1.764c0-1.082.878-1.962 1.957-1.962H78.769z"/>
        <ellipse cx="112.019" cy="71.022" rx="1.812" ry="1.818"/>
        <ellipse cx="105.494" cy="71.022" rx="1.812" ry="1.818"/>
        <ellipse cx="99.051" cy="71.022" rx="1.812" ry="1.818"/>
        <path fill-rule="nonzero" d="M68.725 65.25c-2.95 0-5.352 2.408-5.352 5.368 0 2.96 2.401 5.369 5.352 5.369 2.951 0 5.352-2.409 5.352-5.369s-2.4-5.369-5.352-5.369zm0 7.1a1.732 1.732 0 0 1 0-3.465 1.732 1.732 0 0 1 0 3.466z"/>
        <path d="M17.33 96.252h-4.28a1.815 1.815 0 0 0-1.812 1.818c0 1.004.811 1.818 1.812 1.818h4.28a1.815 1.815 0 0 0 1.812-1.818 1.815 1.815 0 0 0-1.813-1.818zM28.567 96.252h-4.279a1.815 1.815 0 0 0-1.812 1.818c0 1.004.811 1.818 1.812 1.818h4.28a1.815 1.815 0 0 0 1.812-1.818 1.815 1.815 0 0 0-1.813-1.818z"/>
        <path fill-rule="nonzero" d="M21.035 52.943c-3.63 0-6.585 2.963-6.585 6.605 0 3.643 2.954 6.606 6.585 6.606s6.585-2.963 6.585-6.606c0-3.642-2.954-6.605-6.585-6.605zm0 9.575a2.968 2.968 0 0 1-2.96-2.97 2.968 2.968 0 0 1 2.96-2.97 2.968 2.968 0 0 1 2.96 2.97 2.968 2.968 0 0 1-2.96 2.97zM33.696 12.705H9.323a3.158 3.158 0 0 0-3.15 3.159v3.602a3.158 3.158 0 0 0 3.15 3.16h24.373a3.158 3.158 0 0 0 3.15-3.16v-3.602a3.158 3.158 0 0 0-3.15-3.16zm-.475 6.284H9.798v-2.648H33.22v2.648zM33.696 25.819H9.323a3.158 3.158 0 0 0-3.15 3.16v3.601a3.158 3.158 0 0 0 3.15 3.16h24.373a3.158 3.158 0 0 0 3.15-3.16v-3.602a3.158 3.158 0 0 0-3.15-3.16zm-.475 6.284H9.798v-2.648H33.22v2.648z"/>
    </g>
</svg>
