<svg xmlns="http://www.w3.org/2000/svg" width="105" height="105" viewBox="0 0 105 105">
    <g fill="#000" fill-rule="evenodd">
        <path fill-rule="nonzero" d="M78.167 62.661H105v-33.87H75.822a27.248 27.248 0 0 0-4.486-3.955l-4.76-3.33 7.3-13.142a5.1 5.1 0 0 0 .64-2.467V5.08c0-2.801-2.28-5.081-5.08-5.081-3.058 0-4.568 2.416-5.672 4.183-1.128 1.802-1.733 2.591-2.801 2.591-1.069 0-1.674-.789-2.8-2.59C57.06 2.418 55.547 0 52.49 0c-3.055 0-4.565 2.416-5.669 4.183-1.126 1.802-1.73 2.591-2.797 2.591-1.065 0-1.669-.789-2.793-2.59C40.127 2.418 38.618 0 35.565 0c-2.801 0-5.081 2.28-5.081 5.08v.817a5.1 5.1 0 0 0 .64 2.467l.997 1.797H0v33.871h22.205a27.186 27.186 0 0 0-.189 3.176c0 10.293 5.727 19.267 14.16 23.921h-14.16v1.694c0 8.404 6.837 15.242 15.242 15.242h6.629a10.483 10.483 0 0 1-2.95 5.781l-.993.993h-2.686c-4.669 0-8.468 3.799-8.468 8.467V105h47.42v-1.694c0-4.668-3.8-8.467-8.468-8.467h-2.686l-.992-.993a10.493 10.493 0 0 1-2.95-5.781h6.628c8.405 0 15.242-6.838 15.242-15.242v-1.694h-14.16a27.49 27.49 0 0 0 9.343-8.468zm16.843-3.387a8.493 8.493 0 0 1 6.603-6.603v6.603H95.01zm6.603-20.494a8.493 8.493 0 0 1-6.603-6.603h6.603v6.603zm-10.026-6.603a11.862 11.862 0 0 0 10.026 10.026v7.046a11.862 11.862 0 0 0-10.026 10.025h-11.45c1.805-3.644 2.847-7.73 2.847-12.066 0-5.417-1.62-10.626-4.523-15.03h13.126zM33.871 5.081c0-.933.76-1.694 1.694-1.694 1.063 0 1.666.789 2.79 2.59 1.104 1.766 2.613 4.184 5.669 4.184 3.056 0 4.565-2.418 5.67-4.183 1.126-1.802 1.731-2.59 2.796-2.59 1.068 0 1.673.788 2.8 2.59 1.105 1.767 2.616 4.183 5.673 4.183 3.056 0 4.569-2.418 5.673-4.183 1.127-1.802 1.731-2.59 2.8-2.59.934 0 1.693.76 1.693 1.693v.816a1.7 1.7 0 0 1-.213.821l-7.557 13.605H41.641L34.084 6.72a1.711 1.711 0 0 1-.213-.823V5.08zm-23.88 8.467a8.493 8.493 0 0 1-6.604 6.603v-6.603H9.99zM3.386 34.042a8.493 8.493 0 0 1 6.603 6.603H3.387v-6.603zm10.026 6.603A11.862 11.862 0 0 0 3.387 30.62v-7.045a11.862 11.862 0 0 0 10.026-10.026h20.59l4.42 7.957-2.076 1.453c-1.609-3.58-5.197-6.023-9.25-6.023-5.604 0-10.162 4.558-10.162 10.162 0 4.557 3.016 8.422 7.156 9.707a27.433 27.433 0 0 0-1.274 3.841h-9.404zm12.197-6.95c-3.022-.68-5.287-3.376-5.287-6.598a6.78 6.78 0 0 1 6.774-6.774c2.931 0 5.496 1.911 6.407 4.633a27.27 27.27 0 0 0-7.894 8.739zm46.923 67.918H32.467a5.09 5.09 0 0 1 4.791-3.387h30.484a5.09 5.09 0 0 1 4.791 3.387zm-12.075-6.774H44.542a13.811 13.811 0 0 0 2.766-6.774h10.386a13.809 13.809 0 0 0 2.764 6.774zm-23.2-10.162c-3.22 0-6.136-1.297-8.275-3.387h47.032c-2.139 2.09-5.055 3.387-8.275 3.387H37.258zm42.219-10.16a11.75 11.75 0 0 1-1.035 3.386H26.56a11.724 11.724 0 0 1-1.035-3.387h53.952zm-23.802-3.388h-6.35c-13.19 0-23.922-10.732-23.922-23.921A23.942 23.942 0 0 1 35.605 27.61l5.574-3.9h22.64l5.574 3.9a23.94 23.94 0 0 1 10.204 19.598c0 13.19-10.732 23.921-23.922 23.921z"/>
        <path d="M52.5 36.727c2.811 0 5.1 2.264 5.1 5.046H61c0-4.06-2.926-7.458-6.8-8.24V30h-3.4v3.534c-3.874.781-6.8 4.177-6.8 8.239 0 4.636 3.813 8.409 8.5 8.409 2.811 0 5.1 2.264 5.1 5.045 0 2.782-2.289 5.046-5.1 5.046-2.811 0-5.1-2.264-5.1-5.046H44c0 4.06 2.926 7.458 6.8 8.24V67h3.4v-3.534c3.874-.781 6.8-4.177 6.8-8.239 0-4.636-3.813-8.409-8.5-8.409-2.811 0-5.1-2.264-5.1-5.045 0-2.782 2.289-5.046 5.1-5.046z"/>
    </g>
</svg>
