<svg xmlns="http://www.w3.org/2000/svg" width="102" height="102" viewBox="0 0 102 102">
    <g fill="#000" fill-rule="evenodd">
        <path d="M10.193 86.556a1.696 1.696 0 0 0-1.697 1.697v1.697a1.697 1.697 0 1 0 3.393 0v-1.697a1.696 1.696 0 0 0-1.696-1.697zM16.98 91.647a1.696 1.696 0 0 0-1.697 1.696v1.697a1.697 1.697 0 1 0 3.393 0v-1.697a1.696 1.696 0 0 0-1.696-1.696zM23.766 86.556a1.696 1.696 0 0 0-1.696 1.697v1.697a1.697 1.697 0 1 0 3.393 0v-1.697a1.696 1.696 0 0 0-1.697-1.697zM30.553 91.647a1.696 1.696 0 0 0-1.697 1.696v1.697a1.697 1.697 0 0 0 3.393 0v-1.697a1.696 1.696 0 0 0-1.696-1.696zM37.34 86.556a1.696 1.696 0 0 0-1.697 1.697v1.697a1.697 1.697 0 1 0 3.393 0v-1.697a1.696 1.696 0 0 0-1.696-1.697zM44.127 91.647a1.696 1.696 0 0 0-1.697 1.696v1.697a1.697 1.697 0 1 0 3.393 0v-1.697a1.696 1.696 0 0 0-1.696-1.696zM50.913 86.556a1.696 1.696 0 0 0-1.697 1.697v1.697a1.697 1.697 0 1 0 3.394 0v-1.697a1.696 1.696 0 0 0-1.697-1.697zM57.7 91.647a1.696 1.696 0 0 0-1.697 1.696v1.697a1.697 1.697 0 1 0 3.393 0v-1.697a1.696 1.696 0 0 0-1.696-1.696zM64.487 86.556a1.696 1.696 0 0 0-1.697 1.697v1.697a1.697 1.697 0 1 0 3.393 0v-1.697a1.696 1.696 0 0 0-1.696-1.697zM71.274 91.647a1.696 1.696 0 0 0-1.697 1.696v1.697a1.697 1.697 0 1 0 3.393 0v-1.697a1.696 1.696 0 0 0-1.696-1.696zM78.06 86.556a1.696 1.696 0 0 0-1.697 1.697v1.697a1.697 1.697 0 0 0 3.394 0v-1.697a1.696 1.696 0 0 0-1.697-1.697zM84.847 91.647a1.696 1.696 0 0 0-1.697 1.696v1.697a1.697 1.697 0 1 0 3.394 0v-1.697a1.696 1.696 0 0 0-1.697-1.696zM91.634 86.556a1.696 1.696 0 0 0-1.697 1.697v1.697a1.697 1.697 0 0 0 3.393 0v-1.697a1.696 1.696 0 0 0-1.696-1.697z"/>
        <path fill-rule="nonzero" d="M93.33 47.533a8.4 8.4 0 0 0-5.09 1.74V33.959a8.483 8.483 0 1 0-16.967 0v15.314a8.402 8.402 0 0 0-5.09-1.74 8.494 8.494 0 0 0-8.483 8.483v11.877h-5.09v-58a5.092 5.092 0 1 0-4.314-.435L29.9 17.123a1.696 1.696 0 0 0 0 3.132l19.316 8.048v39.59H32.25V56.016a8.494 8.494 0 0 0-8.483-8.483 8.4 8.4 0 0 0-5.09 1.74v-8.527a8.484 8.484 0 0 0-16.967 0v27.147A1.696 1.696 0 0 0 .013 69.59v20.36c.007 6.556 5.32 11.87 11.876 11.877h78.048c6.556-.008 11.869-5.32 11.876-11.877V56.016a8.493 8.493 0 0 0-8.483-8.483zM74.667 33.959a5.09 5.09 0 0 1 10.18 0v33.934h-10.18V33.959zM61.093 56.016a5.09 5.09 0 0 1 10.18 0v11.877h-10.18V56.016zM50.913 3.42a1.697 1.697 0 1 1 0 3.393 1.697 1.697 0 0 1 0-3.393zm-15.948 15.27l14.252-5.938v11.876L34.965 18.69zM18.676 56.016a5.096 5.096 0 0 1 5.09-5.09 5.096 5.096 0 0 1 5.09 5.09v11.877h-10.18V56.016zM5.103 40.746a5.09 5.09 0 0 1 10.18 0v27.147H5.103V40.746zM98.42 89.95a8.494 8.494 0 0 1-8.483 8.483H11.889a8.494 8.494 0 0 1-8.483-8.483v-7.435l2.566 1.283a5.243 5.243 0 0 0 5.026-.264l1.73-1.153a1.833 1.833 0 0 1 1.716 0l1.49.994a5.196 5.196 0 0 0 5.483 0l1.492-.994a1.833 1.833 0 0 1 1.715 0l1.49.994a5.196 5.196 0 0 0 5.483 0l1.492-.994a1.833 1.833 0 0 1 1.715 0l1.49.994a5.196 5.196 0 0 0 5.483 0l1.492-.994a1.833 1.833 0 0 1 1.716 0l1.49.994a5.196 5.196 0 0 0 5.482 0l1.492-.994a1.833 1.833 0 0 1 1.716 0l1.49.994a5.196 5.196 0 0 0 5.482 0l1.492-.994a1.833 1.833 0 0 1 1.716 0l1.49.994a5.196 5.196 0 0 0 5.482 0l1.492-.994a1.833 1.833 0 0 1 1.716 0l1.49.994a5.196 5.196 0 0 0 5.482 0l1.492-.994a1.833 1.833 0 0 1 1.716 0l1.49.994a5.196 5.196 0 0 0 5.482 0l1.492-.994a1.833 1.833 0 0 1 1.716 0l2.535 1.69v5.879zm0-9.958l-.652-.434a5.196 5.196 0 0 0-5.481 0l-1.492.994a1.819 1.819 0 0 1-1.716 0l-1.49-.994a5.196 5.196 0 0 0-5.483 0l-1.492.994a1.819 1.819 0 0 1-1.715 0l-1.49-.994a5.196 5.196 0 0 0-5.483 0l-1.492.994a1.819 1.819 0 0 1-1.715 0l-1.49-.994a5.196 5.196 0 0 0-5.483 0l-1.492.994a1.819 1.819 0 0 1-1.716 0l-1.49-.994a5.196 5.196 0 0 0-5.482 0l-1.492.994a1.819 1.819 0 0 1-1.716 0l-1.49-.994a5.196 5.196 0 0 0-5.482 0l-1.492.994a1.819 1.819 0 0 1-1.716 0l-1.49-.994a5.196 5.196 0 0 0-5.482 0l-1.492.994a1.819 1.819 0 0 1-1.716 0l-1.49-.994a5.196 5.196 0 0 0-5.482 0l-1.492.994a1.819 1.819 0 0 1-1.716 0l-1.49-.994a5.196 5.196 0 0 0-5.482 0L9.117 80.71a1.887 1.887 0 0 1-1.627.051l-4.084-2.041v-7.435h95.015v8.706zm0-12.1H88.24V56.017a5.096 5.096 0 0 1 5.09-5.09 5.096 5.096 0 0 1 5.09 5.09v11.877z"/>
    </g>
</svg>
