<svg xmlns="http://www.w3.org/2000/svg" width="112" height="111" viewBox="0 0 112 111">
    <g fill="#000" fill-rule="evenodd">
        <path fill-rule="nonzero" d="M84.102 12.303L56.315.155a1.855 1.855 0 0 0-1.482 0L27.046 12.303a1.85 1.85 0 0 0-1.112 1.694v29.045a20.367 20.367 0 0 0 8.448 16.48l19.204 13.832a3.394 3.394 0 0 0 3.975 0l19.205-13.83a20.367 20.367 0 0 0 8.447-16.48V13.997c0-.735-.437-1.4-1.111-1.694zm-2.594 30.74a16.66 16.66 0 0 1-6.91 13.48L55.575 70.226 36.549 56.523a16.66 16.66 0 0 1-6.91-13.48V15.208L55.574 3.87l25.934 11.337v27.837z"/>
        <path fill-rule="nonzero" d="M54.833 8.232l-20.377 8.91a1.85 1.85 0 0 0-1.112 1.695v24.207a12.945 12.945 0 0 0 5.372 10.478L54.49 64.885c.647.466 1.52.466 2.167 0l15.774-11.363a12.945 12.945 0 0 0 5.372-10.478V18.837c0-.736-.436-1.4-1.111-1.695l-20.377-8.91a1.855 1.855 0 0 0-1.482 0zm19.265 11.813v22.999a9.246 9.246 0 0 1-3.834 7.478l-14.69 10.582-14.69-10.582a9.246 9.246 0 0 1-3.835-7.478v-23l18.525-8.097 18.524 8.098zM15.348 61.42l-4.007-9.35a5.909 5.909 0 0 0-10.17-1.1 5.891 5.891 0 0 0-.636 5.864l7.26 15.949a19.648 19.648 0 0 0 4.022 5.798l11.417 11.403A3.675 3.675 0 0 0 22.23 92.5v14.8c0 2.043 1.658 3.7 3.704 3.7h20.377a3.702 3.702 0 0 0 3.705-3.7V92.5c0-2.043-1.658-3.7-3.705-3.7v-3.443a19.367 19.367 0 0 0-4.06-12.117 13.337 13.337 0 0 0-6.174-4.498 36.651 36.651 0 0 1-10.606-6.797 8.53 8.53 0 0 0-10.123-.525zM46.31 107.3H25.934V92.5h20.377v14.8zM39.36 75.55a15.684 15.684 0 0 1 3.248 9.807V88.8H27.289L14.436 75.965a16 16 0 0 1-3.27-4.712l-7.26-15.95a2.197 2.197 0 0 1 .154-2.1 2.203 2.203 0 0 1 3.874.325l4.144 9.651a21.829 21.829 0 0 0 4.672 6.892l8.462 8.452a1.854 1.854 0 0 0 3.125-.817 1.848 1.848 0 0 0-.506-1.799l-8.462-8.452a18.252 18.252 0 0 1-2.284-2.775 4.821 4.821 0 0 1 6 .1 39.503 39.503 0 0 0 11.819 7.474 9.73 9.73 0 0 1 4.455 3.296z"/>
        <path d="M40.754 98.05h-1.852a1.851 1.851 0 1 0 0 3.7h1.852a1.851 1.851 0 1 0 0-3.7z"/>
        <path fill-rule="nonzero" d="M103.352 72.783l7.26-15.95a5.891 5.891 0 0 0-.578-5.924A5.909 5.909 0 0 0 99.81 52.07l-3.998 9.315a8.553 8.553 0 0 0-10.135.555 36.651 36.651 0 0 1-10.605 6.797 13.337 13.337 0 0 0-6.174 4.497 19.367 19.367 0 0 0-4.06 12.123V88.8a3.702 3.702 0 0 0-3.706 3.7v14.8c0 2.043 1.659 3.7 3.705 3.7h20.377a3.702 3.702 0 0 0 3.705-3.7V92.5a3.675 3.675 0 0 0-1.004-2.516l11.417-11.403a19.648 19.648 0 0 0 4.021-5.798zM85.213 107.3H64.836V92.5h20.377v14.8zM83.86 88.8H68.541v-3.443a15.684 15.684 0 0 1 3.247-9.805 9.736 9.736 0 0 1 4.446-3.298 39.487 39.487 0 0 0 11.82-7.474 4.821 4.821 0 0 1 6.012-.117 18.146 18.146 0 0 1-2.295 2.794l-8.462 8.452a1.848 1.848 0 0 0 .022 2.594c.715.713 1.87.723 2.597.022l8.462-8.453a21.829 21.829 0 0 0 4.672-6.89l4.144-9.654a2.203 2.203 0 1 1 3.874-.323c.405.629.463 1.42.153 2.1l-7.26 15.95a16 16 0 0 1-3.27 4.712L83.86 88.8z"/>
        <path d="M72.246 98.05h-1.853a1.851 1.851 0 1 0 0 3.7h1.853a1.851 1.851 0 1 0 0-3.7zM45.57 39.22a1.854 1.854 0 0 0-2.593.37 1.848 1.848 0 0 0 .37 2.59l7.41 5.55a1.854 1.854 0 0 0 2.653-.453l14.82-22.2a1.848 1.848 0 0 0-1.422-2.873 1.854 1.854 0 0 0-1.66.82L51.412 43.596 45.57 39.22z"/>
    </g>
</svg>
