<svg xmlns="http://www.w3.org/2000/svg" width="131" height="90" viewBox="0 0 131 90">
    <g fill="#000" fill-rule="evenodd">
        <path fill-rule="nonzero" d="M105.167 20.614h-9.344V2.208a2.01 2.01 0 0 0-.771-1.67 2.036 2.036 0 0 0-1.816-.352l-58.65 16.219-20.561 1.816a2.104 2.104 0 0 0-1.925 2.09v3.19h-1.668C4.67 23.5 0 28.14 0 33.864c0 5.724 4.67 10.364 10.432 10.364H12.1v3.192c.026 1.098.883 2 1.985 2.09l1.976.17v38.144a1.97 1.97 0 0 0 .56 1.459c.38.388.903.606 1.448.601h22.356a2.089 2.089 0 0 0 1.658-.778c.402-.499.549-1.156.398-1.777l-8.646-36.075.767.07 58.666 16.221c.185.051.375.077.566.077.443 0 .872-.15 1.217-.427.51-.404.796-1.024.772-1.671v-18.41h9.344a2.007 2.007 0 0 0 1.451-.606c.38-.39.583-.919.562-1.46V22.683a1.983 1.983 0 0 0-.56-1.461 2.013 2.013 0 0 0-1.453-.609zm-72.202.158v26.187l-16.64-1.46V22.231l16.64-1.46zM10.432 40.03c-3.428 0-6.206-2.76-6.206-6.166 0-3.405 2.778-6.166 6.206-6.166H12.1V40.03h-1.668zm27.319 45.656H20.287V50.054l9.163.795 8.3 34.838zm53.847-22.925L37.19 47.659V20.074L91.598 4.97v57.79zm11.357-19.845h-7.132V24.812h7.132v18.105z"/>
        <path d="M128.838 32.946H114.84c-1.167 0-2.113.94-2.113 2.1 0 1.159.946 2.099 2.113 2.099h13.998c1.166 0 2.112-.94 2.112-2.1 0-1.159-.946-2.099-2.112-2.099zM112.121 25.55c.457 0 .902-.147 1.267-.42l11.258-8.39a2.09 2.09 0 0 0 .423-2.938 2.121 2.121 0 0 0-2.958-.42l-11.26 8.39a2.092 2.092 0 0 0-.737 2.343 2.112 2.112 0 0 0 2.006 1.434l.001.001zM124.646 52.53l-11.259-8.389a2.124 2.124 0 0 0-2.959.42 2.09 2.09 0 0 0 .423 2.939l11.259 8.39a2.122 2.122 0 0 0 2.958-.421 2.09 2.09 0 0 0-.423-2.939z"/>
    </g>
</svg>
