<svg xmlns="http://www.w3.org/2000/svg" width="103" height="109" viewBox="0 0 103 109">
    <g fill="#000" fill-rule="evenodd">
        <path d="M23.76 73.552c-.02.012-2.103 1.133-4.487 1.133-2.381 0-4.451-1.113-4.49-1.135a1.57 1.57 0 0 0-2.142.63 1.606 1.606 0 0 0 .622 2.17c.111.063 2.784 1.529 6.01 1.529s5.899-1.466 6.01-1.529a1.607 1.607 0 0 0 .623-2.17 1.573 1.573 0 0 0-2.146-.628zM17.837 68.226c0 .881-.707 1.596-1.58 1.596-.872 0-1.58-.715-1.58-1.596 0-.883.708-1.597 1.58-1.597.873 0 1.58.714 1.58 1.597zM23.868 68.226c0 .881-.706 1.596-1.58 1.596-.872 0-1.58-.715-1.58-1.596 0-.883.708-1.597 1.58-1.597.874 0 1.58.714 1.58 1.597z"/>
        <path fill-rule="nonzero" d="M100.825 92.018a1.572 1.572 0 0 0-2.131-.678 1.606 1.606 0 0 0-.671 2.154 16.24 16.24 0 0 1 1.817 7.523v.025c0 2.627-2.114 4.765-4.714 4.765H72.327a4.677 4.677 0 0 1-2.606-.797 7.97 7.97 0 0 0 1.052-3.968v-.025c0-2.6-.508-5.082-1.427-7.353 2.731-5.448 8.302-8.934 14.381-8.934 3.86 0 7.593 1.4 10.511 3.941.662.576 1.659.501 2.228-.168a1.608 1.608 0 0 0-.165-2.25A19.193 19.193 0 0 0 90.55 82.8a13.339 13.339 0 0 0 6.342-11.375c0-7.337-5.906-13.306-13.165-13.306-7.259 0-13.165 5.969-13.165 13.306a13.34 13.34 0 0 0 6.347 11.378 19.39 19.39 0 0 0-9.3 7.533 19.415 19.415 0 0 0-9.285-7.537 13.34 13.34 0 0 0 6.34-11.374c0-7.337-5.905-13.306-13.164-13.306-7.259 0-13.165 5.969-13.165 13.306a13.34 13.34 0 0 0 6.342 11.374c-3.825 1.468-7.069 4.133-9.287 7.538a19.402 19.402 0 0 0-2.488-3.095 19.188 19.188 0 0 0-6.798-4.447 13.34 13.34 0 0 0 6.334-11.37c0-7.337-5.906-13.306-13.165-13.306-7.259 0-13.165 5.969-13.165 13.306a13.34 13.34 0 0 0 6.338 11.372 19.198 19.198 0 0 0-6.635 4.28 1.61 1.61 0 0 0-.027 2.258c.61.63 1.61.643 2.234.027 3.027-2.987 7.024-4.632 11.255-4.632 4.305 0 8.351 1.694 11.395 4.77a16.253 16.253 0 0 1 2.986 4.164 19.554 19.554 0 0 0-1.427 7.353v.025c0 1.445.384 2.8 1.052 3.968a4.677 4.677 0 0 1-2.606.797h-22.8c-2.599 0-4.713-2.138-4.713-4.765v-.025c0-2.246.443-4.419 1.317-6.461a1.603 1.603 0 0 0-.823-2.1 1.573 1.573 0 0 0-2.077.833A19.524 19.524 0 0 0 0 101.017v.025C0 105.43 3.532 109 7.873 109h22.8a7.816 7.816 0 0 0 4.714-1.588A7.777 7.777 0 0 0 40.1 109h22.8c1.766 0 3.398-.59 4.713-1.588A7.816 7.816 0 0 0 72.327 109h22.8c4.34 0 7.873-3.57 7.873-7.958v-.025c0-3.13-.752-6.242-2.175-9zM73.722 71.425c0-5.576 4.488-10.112 10.005-10.112s10.005 4.536 10.005 10.112c0 5.576-4.488 10.112-10.005 10.112s-10.005-4.536-10.005-10.112zm-64.454 0c0-5.576 4.488-10.112 10.005-10.112s10.005 4.536 10.005 10.112c0 5.576-4.488 10.112-10.005 10.112S9.268 77.001 9.268 71.425zm32.227 0c0-5.576 4.488-10.112 10.005-10.112s10.005 4.536 10.005 10.112c0 5.576-4.488 10.112-10.005 10.112s-10.005-4.536-10.005-10.112zM40.1 105.807c-2.599 0-4.713-2.138-4.713-4.765v-.025c0-8.98 7.228-16.287 16.113-16.287s16.113 7.306 16.113 16.287v.025c0 2.627-2.114 4.765-4.713 4.765H40.1z"/>
        <path d="M88.214 73.552c-.02.012-2.103 1.133-4.487 1.133-2.381 0-4.451-1.113-4.49-1.135a1.57 1.57 0 0 0-2.143.63 1.606 1.606 0 0 0 .623 2.17c.111.063 2.784 1.529 6.01 1.529s5.899-1.466 6.01-1.529a1.607 1.607 0 0 0 .623-2.17 1.573 1.573 0 0 0-2.146-.628zM82.291 68.226c0 .881-.707 1.596-1.58 1.596-.873 0-1.58-.715-1.58-1.596 0-.883.707-1.597 1.58-1.597.873 0 1.58.714 1.58 1.597zM88.322 68.226c0 .881-.707 1.596-1.58 1.596-.872 0-1.58-.715-1.58-1.596 0-.883.708-1.597 1.58-1.597.873 0 1.58.714 1.58 1.597zM55.987 73.552c-.02.012-2.103 1.133-4.487 1.133-2.381 0-4.451-1.113-4.49-1.135a1.57 1.57 0 0 0-2.143.63 1.606 1.606 0 0 0 .623 2.17c.111.063 2.784 1.529 6.01 1.529s5.899-1.466 6.01-1.529a1.607 1.607 0 0 0 .623-2.17 1.573 1.573 0 0 0-2.146-.628zM50.064 68.226c0 .881-.707 1.596-1.58 1.596-.873 0-1.58-.715-1.58-1.596 0-.883.707-1.597 1.58-1.597.873 0 1.58.714 1.58 1.597zM56.095 68.226c0 .881-.706 1.596-1.58 1.596-.872 0-1.58-.715-1.58-1.596 0-.883.708-1.597 1.58-1.597.874 0 1.58.714 1.58 1.597zM62.032 22.408h22.327c.872 0 1.58-.715 1.58-1.596 0-.883-.708-1.597-1.58-1.597H62.032c-.872 0-1.58.714-1.58 1.597 0 .881.708 1.596 1.58 1.596zM62.032 28.795h22.327c.872 0 1.58-.715 1.58-1.597s-.708-1.596-1.58-1.596H62.032c-.872 0-1.58.714-1.58 1.596 0 .882.708 1.597 1.58 1.597zM62.032 35.182h22.327c.872 0 1.58-.715 1.58-1.597s-.708-1.597-1.58-1.597H62.032c-.872 0-1.58.715-1.58 1.597s.708 1.597 1.58 1.597z"/>
        <path fill-rule="nonzero" d="M15.56 44.335h7.566c.489 4.157 1.955 7.196 4.37 9.046 2.001 1.534 4.295 1.969 6.253 1.969 1.219 0 2.309-.169 3.116-.346a1.837 1.837 0 0 0 1.433-1.829 1.837 1.837 0 0 0-1.498-1.777c-.961-.174-1.617-.593-2.063-1.32-.94-1.536-.746-4.095-.444-5.743h9.755c1.72 0 3.347-.41 4.792-1.133 1.574 4.139 5.582 7.042 10.112 7.042h9.754c.303 1.649.498 4.208-.444 5.743-.445.727-1.101 1.147-2.064 1.32-.85.155-1.48.901-1.496 1.774a1.82 1.82 0 0 0 1.433 1.833 14.7 14.7 0 0 0 3.115.346c1.96 0 4.254-.436 6.256-1.97 2.414-1.851 3.88-4.89 4.367-9.046h7.566c5.966 0 10.822-4.903 10.822-10.93V16.84c0-6.027-4.856-10.93-10.822-10.93H58.952c-1.667 0-3.31.394-4.792 1.131C52.604 2.93 48.66 0 44.05 0h-19.51c-.872 0-1.58.714-1.58 1.597 0 .882.708 1.596 1.58 1.596h19.51c4.225 0 7.662 3.47 7.662 7.737v22.476c0 4.266-3.437 7.736-7.662 7.736h-11.01c-.7 0-1.316.466-1.514 1.144-.174.596-1.64 5.928.522 9.466.058.095.12.19.182.28-.969-.168-1.952-.527-2.823-1.195-1.929-1.478-3.024-4.235-3.256-8.193a1.588 1.588 0 0 0-1.577-1.502H15.56c-4.225 0-7.662-3.47-7.662-7.736V10.93c0-4.266 3.437-7.737 7.662-7.737h2.238c.872 0 1.58-.714 1.58-1.596C19.378.714 18.67 0 17.798 0H15.56C9.594 0 4.739 4.903 4.739 10.93v22.476c0 6.026 4.855 10.93 10.822 10.93zm39.31-10.93V10.93c0-.21-.007-.42-.019-.626a7.516 7.516 0 0 1 4.101-1.2h28.487c4.225 0 7.662 3.47 7.662 7.736v22.475c0 4.265-3.437 7.736-7.662 7.736h-9.012c-.836 0-1.527.659-1.577 1.502-.232 3.959-1.326 6.715-3.254 8.193-.872.669-1.856 1.028-2.826 1.197.063-.092.124-.186.182-.282 2.163-3.538.697-8.87.523-9.465a1.582 1.582 0 0 0-1.515-1.145H58.952c-3.489 0-6.539-2.429-7.41-5.77a10.948 10.948 0 0 0 3.328-7.875z"/>
        <path fill-rule="nonzero" d="M15.166 19.032c0 3.353 1.723 9.9 13.266 16.07a2.91 2.91 0 0 0 2.745 0c11.543-6.17 13.267-12.717 13.267-16.07 0-5.12-3.562-9.133-8.11-9.133-3.13 0-5.328 1.492-6.53 2.603-1.2-1.11-3.397-2.603-6.529-2.603-4.548 0-8.11 4.012-8.11 9.133zm8.11-5.94c2.227 0 3.762 1.098 4.656 2.018.488.503 1.17.791 1.873.791.702 0 1.384-.288 1.872-.79.895-.92 2.43-2.018 4.657-2.018 3.216 0 4.95 3.06 4.95 5.94 0 4.461-4.182 9.266-11.48 13.19-7.297-3.924-11.479-8.729-11.479-13.19 0-2.88 1.735-5.94 4.95-5.94z"/>
    </g>
</svg>
