<svg xmlns="http://www.w3.org/2000/svg" width="112" height="120" viewBox="0 0 112 120">
    <g fill="#000" fill-rule="nonzero">
        <path d="M30.489 38.787l-13.673-10c-.793-.582-1.683-.402-2.385.087-.7.49-1.172 1.26-.889 2.197l4.874 16.144c.316 1.073 1.278.59 1.979.101.702-.49 1.222-1.011.891-2.104l-.966-3.109 4.676-3.264 2.624 1.951c.925.678 1.596.368 2.297-.122.7-.489 1.483-1.224.572-1.881zm-11.09.27l-1.164-3.79c-.321-1.036-.476-1.433-.947-2.366.726.755 1.05 1.033 1.925 1.683l3.204 2.367-3.018 2.107z"/>
        <path d="M103.02 36.763h-7.81V13.987c0-4.795-3.933-8.695-8.765-8.695H62.226c-.968 0-1.752.779-1.752 1.74 0 .96.784 1.738 1.752 1.738h24.22c2.899 0 5.258 2.34 5.258 5.217v22.777H74.45L51.152 3.922C48.37 0 42.892-.944 38.94 1.815L3.84 26.32a8.632 8.632 0 0 0-3.59 5.622 8.583 8.583 0 0 0 1.467 6.493l38.2 53.85a8.716 8.716 0 0 0 5.667 3.561 8.726 8.726 0 0 0 5.751-.968v16.426c0 4.794 3.93 8.695 8.764 8.695h42.922c4.832 0 8.763-3.9 8.763-8.695V45.457c0-4.794-3.93-8.694-8.763-8.694zM50.11 91.548a5.265 5.265 0 0 1-3.927.873 5.235 5.235 0 0 1-3.4-2.138L4.585 36.435a5.146 5.146 0 0 1-.88-3.897 5.178 5.178 0 0 1 2.154-3.372l35.1-24.507c2.371-1.656 5.658-1.088 7.327 1.264l21.877 30.84H60.1c-4.832 0-8.764 3.9-8.764 8.695v13.618c-4.687-.336-8.347-.739-9.977-1.105-3.746-.84-5.379-1.635-6.72-3.267-1.533-1.867-1.656-3.692-1.488-4.893.229-1.658 1.165-3.17 2.565-4.148 1.592-1.112 3.618-1.314 5.543-.56l.07.028a1.767 1.767 0 0 0 1.676-.2c.488-.346.764-.915.73-1.509l-.003-.058c-.068-2.048.812-3.864 2.415-4.983a6.27 6.27 0 0 1 2.702-1.064 1.74 1.74 0 0 0 1.49-1.965 1.748 1.748 0 0 0-1.982-1.478 9.8 9.8 0 0 0-4.227 1.662 9.008 9.008 0 0 0-3.733 5.749c-2.368-.369-4.725.157-6.7 1.535-2.191 1.53-3.658 3.906-4.02 6.517-.37 2.665.428 5.351 2.245 7.564 2.131 2.595 4.689 3.57 8.663 4.462 2.39.536 7.25.952 10.75 1.2v28.13l-1.223.855zm58.169 19.758c0 2.876-2.359 5.216-5.258 5.216H60.099c-2.9 0-5.259-2.34-5.259-5.216V45.458c0-2.877 2.36-5.218 5.259-5.218h42.922c2.9 0 5.258 2.341 5.258 5.218v65.848z"/>
        <path d="M71.369 61.637c.363 1.083 1.091 1.213 1.949 1.213.857 0 1.923-.155 1.559-1.213l-5.38-15.985c-.311-.928-1.144-1.289-2.001-1.289-.858 0-1.69.361-2 1.29l-5.38 15.984c-.365 1.058.701 1.213 1.559 1.213.857 0 1.585-.13 1.949-1.213l1.014-3.094h5.718l1.013 3.094zm-5.718-6.11l1.248-3.764c.338-1.031.442-1.444.598-2.475.155 1.03.26 1.444.597 2.475l1.247 3.764h-3.69zM92.543 71.615c-2.11-2.315-7.653-6.784-9.94-8.598a2.497 2.497 0 0 0-3.112-.002c-2.287 1.811-7.834 6.274-9.953 8.6-2.733 2.998-4.26 5.256-4.497 8.596-.203 2.846.704 5.498 2.553 7.467 1.811 1.928 4.387 3.034 7.068 3.034.142 0 .283-.004.424-.01l-1.156 1.67a3.36 3.36 0 0 0-.136 3.495 3.416 3.416 0 0 0 2.984 1.746h8.523c1.241 0 2.385-.669 2.986-1.746a3.362 3.362 0 0 0-.097-3.436l-.04-.059-1.155-1.67c.14.006.281.01.423.01 2.681 0 5.257-1.106 7.068-3.034 1.85-1.969 2.757-4.62 2.553-7.467-.238-3.34-1.763-5.598-4.496-8.596zM76.96 94.135l4.079-5.893 4.078 5.894h-8.157zm14.96-8.828a6.193 6.193 0 0 1-4.504 1.927c-1.757 0-3.358-.79-4.508-2.227a2.375 2.375 0 0 0-1.861-.896c-.73 0-1.41.329-1.866.902a6.353 6.353 0 0 1-.34.39 3.14 3.14 0 0 0-.212.216 5.632 5.632 0 0 1-3.968 1.615 6.193 6.193 0 0 1-4.504-1.927c-.833-.887-1.791-2.45-1.62-4.851.15-2.1 1.024-3.682 3.6-6.509 1.497-1.643 5.47-4.969 8.908-7.71 3.438 2.746 7.405 6.074 8.897 7.71 2.575 2.827 3.45 4.408 3.6 6.509.17 2.401-.788 3.964-1.622 4.851z"/>
    </g>
</svg>
