<svg xmlns="http://www.w3.org/2000/svg" width="115" height="100" viewBox="0 0 115 100">
    <g fill="#000" fill-rule="evenodd">
        <path fill-rule="nonzero" d="M109.25 50h-1.917V9.615C107.327 4.308 103.04.006 97.75 0h-80.5c-5.29.006-9.577 4.308-9.583 9.615v28.847H5.75C2.574 38.462 0 41.044 0 44.23v50C0 97.417 2.574 100 5.75 100h72.833a1.92 1.92 0 0 0 1.917-1.923c-.006-5.308-4.293-9.61-9.583-9.615h-5.75V76.923h23v17.308c0 3.186 2.574 5.769 5.75 5.769h15.333c3.176 0 5.75-2.583 5.75-5.77V55.77c0-3.187-2.574-5.77-5.75-5.77zM42.167 94.23a1.92 1.92 0 0 1-1.917 1.924H5.75a1.92 1.92 0 0 1-1.917-1.923v-1.923h38.334v1.923zm0-5.768H3.833V44.23a1.92 1.92 0 0 1 1.917-1.923h34.5a1.92 1.92 0 0 1 1.917 1.923v44.23zm28.75 3.846a5.762 5.762 0 0 1 5.422 3.846H45.647A5.72 5.72 0 0 0 46 94.23v-1.923h24.917zM46 88.462V76.923h3.833v11.539H46zm7.667 0V76.923h7.666v11.539h-7.666zm34.5-15.385H46V61.538h42.167v11.539zm0-17.308v1.923H46V44.231a5.715 5.715 0 0 0-.656-2.618c.03-.026.068-.034.094-.063l18.975-19.038a1.927 1.927 0 0 0-.047-2.72 1.912 1.912 0 0 0-2.663 0L42.728 38.831c-.046.048-.065.11-.105.16a5.662 5.662 0 0 0-2.373-.53H11.5V9.616c0-3.186 2.574-5.769 5.75-5.769h80.5c3.176 0 5.75 2.583 5.75 5.77V50h-9.583c-3.176 0-5.75 2.583-5.75 5.77zm23 38.462a1.92 1.92 0 0 1-1.917 1.923H93.917A1.92 1.92 0 0 1 92 94.23v-1.923h19.167v1.923zm0-5.77H92V55.77a1.92 1.92 0 0 1 1.917-1.923h15.333a1.92 1.92 0 0 1 1.917 1.923v32.693z"/>
        <path d="M22.902 61.87a1.912 1.912 0 0 0-2.71 0l-8.13 8.157a1.928 1.928 0 0 0-.047 2.72 1.912 1.912 0 0 0 2.757 0l8.13-8.159c.342-.594-.345-1.725 0-2.719zM34.355 61.87a1.912 1.912 0 0 0-2.663 0l-8.13 8.157a1.927 1.927 0 0 0-.047 2.72 1.912 1.912 0 0 0 2.757 0l8.13-8.159a1.928 1.928 0 0 0-.047-2.719zM76.058 19.794a1.912 1.912 0 0 0-2.663 0L54.42 38.833a1.928 1.928 0 0 0-.047 2.719 1.912 1.912 0 0 0 2.757 0l18.975-19.039a1.927 1.927 0 0 0-.047-2.719zM105.602 67.075a1.912 1.912 0 0 0-2.664 0l-5.42 5.438a1.928 1.928 0 0 0-.047 2.72 1.912 1.912 0 0 0 2.757 0l5.42-5.439a1.928 1.928 0 0 0-.046-2.719zM57.538 65.385h-.019a1.92 1.92 0 0 0-1.907 1.932 1.92 1.92 0 0 0 1.926 1.914 1.92 1.92 0 0 0 1.917-1.923 1.92 1.92 0 0 0-1.917-1.923zM61.333 7.692h-7.666a1.92 1.92 0 0 0-1.917 1.923 1.92 1.92 0 0 0 1.917 1.923h7.666a1.92 1.92 0 0 0 1.917-1.923 1.92 1.92 0 0 0-1.917-1.923z"/>
    </g>
</svg>
