<svg xmlns="http://www.w3.org/2000/svg" width="106" height="106" viewBox="0 0 106 106">
    <g fill="#000" fill-rule="evenodd">
        <path fill-rule="nonzero" d="M106 23.966c0-3.764-3.067-6.824-6.839-6.824-3.771 0-6.838 3.06-6.838 6.824 0 3.17 2.186 5.82 5.129 6.583v30.955h-5.13V42.735c0-4.704-3.835-8.531-8.548-8.531h-9.78L81.555 4.03 60.3 21.38 47.858.107 35.425 21.38 14.187 4.027l7.56 30.177h-9.78c-4.713 0-8.548 3.827-8.548 8.531V92.53C1.434 93.237 0 95.114 0 97.335v8.53h95.742v-8.53c0-2.221-1.434-4.098-3.42-4.805V81.98h3.42c2.827 0 5.129-2.297 5.129-5.12V30.55c2.943-.762 5.129-3.412 5.129-6.583zM20.007 13.193l16.351 13.36 11.5-19.676 11.506 19.675 16.37-13.364-5.26 21.016H25.268l-5.262-21.01zm-8.04 24.423h71.807c2.828 0 5.13 2.297 5.13 5.12v49.48h-18.1l-3.419-3.413H28.357l-3.42 3.413H6.84v-49.48c0-2.823 2.301-5.12 5.129-5.12zm80.356 64.837H3.419v-5.118c0-.94.767-1.707 1.71-1.707h21.224l3.42-3.412H65.97l3.419 3.412h21.224c.943 0 1.71.767 1.71 1.707v5.118zm3.419-23.887h-3.42v-13.65h5.13V76.86a1.71 1.71 0 0 1-1.71 1.706zm3.42-51.187a3.42 3.42 0 0 1-3.42-3.413 3.42 3.42 0 0 1 6.839 0 3.42 3.42 0 0 1-3.42 3.413z"/>
        <path fill-rule="nonzero" d="M34.194 85.391h47.87a3.42 3.42 0 0 0 3.42-3.412V44.44a3.42 3.42 0 0 0-3.42-3.412H10.259V85.39h23.936zm-20.517-3.412V51.266h20.517V81.98H13.677zm23.936 0v-3.413h20.516v3.413H37.613zm23.935 0V51.266h20.517l.001 30.713H61.548zM82.065 44.44v3.413H61.548V44.44h20.517zm-23.936 0v30.713H37.613V44.44h20.516zm-23.935 0v3.413H13.677V44.44h20.517z"/>
        <path d="M17.097 61.504h10.012L19.022 76.03l2.988 1.659 8.764-15.744v-3.855H17.097zM64.968 58.091v3.413H74.98L66.893 76.03l2.988 1.659 8.764-15.744v-3.855zM42.957 69.206l2.989 1.659L54.71 55.12v-3.855H41.032v3.413h10.012z"/>
    </g>
</svg>
