<svg xmlns="http://www.w3.org/2000/svg" width="120" height="120" viewBox="0 0 120 120">
    <g fill="#000" fill-rule="evenodd">
        <path d="M40 0C23.431 0 10 13.431 10 30v22c.009 7.728 6.272 13.991 14 14h2v-4h-2c-5.52-.007-9.993-4.48-10-10V30C14 15.64 25.64 4 40 4s26 11.64 26 26v22c-.007 5.52-4.48 9.993-10 10h-2v4h2c7.728-.009 13.991-6.272 14-14V30C70 13.431 56.569 0 40 0zM16.482 94.258l1.462-2.302-3.378-2.144-1.462 2.304a19.936 19.936 0 0 0 .826 22.566V120h4v-6a2 2 0 0 0-.438-1.25 15.934 15.934 0 0 1-1.01-18.492z"/>
        <path fill-rule="nonzero" d="M110 0H84c-5.52.006-9.993 4.48-10 10v20c.007 5.52 4.48 9.993 10 10h4v8a2 2 0 0 0 3.414 1.414L100.828 40H110c5.52-.007 9.993-4.48 10-10V10c-.007-5.52-4.48-9.993-10-10zm6 30a6 6 0 0 1-6 6h-10a2 2 0 0 0-1.414.586L92 43.172V38a2 2 0 0 0-2-2h-6a6 6 0 0 1-6-6V10a6 6 0 0 1 6-6h26a6 6 0 0 1 6 6v20z"/>
        <path d="M84 10h14v4H84zM102 10h8v4h-8zM84 18h26v4H84zM84 26h14v4H84zM66.896 92.116l-1.462-2.304-3.378 2.144 1.462 2.304a15.93 15.93 0 0 1-1.01 18.49 2 2 0 0 0-.438 1.25v6h4v-5.318a19.936 19.936 0 0 0 .826-22.566z"/>
        <path fill-rule="nonzero" d="M118 68h-18c-7.504.009-13.666 5.932-13.972 13.43L80 92.282V84c-.009-7.728-6.272-13.991-14-14h-7.31l-.054-.042L58.6 70H54a4 4 0 0 1-4-4v-4.706A20 20 0 0 0 60 44V28a20.041 20.041 0 0 0-2.4-9.492 2 2 0 0 0-2.6-.86L21.148 33.576A2 2 0 0 0 20 35.386V44a20 20 0 0 0 10 17.294V66a4 4 0 0 1-4 4H14C6.272 70.009.009 76.272 0 84v36h4V84c.006-5.52 4.48-9.993 10-10h6.364l18.01 25.164a2 2 0 0 0 1.6.836H40a2 2 0 0 0 1.6-.8l19-25.2H66c5.52.007 9.993 4.48 10 10v16a2 2 0 0 0 3.748.97L89.176 84h11.466l-19.5 36h4.55L105.2 84h.8c7.728-.009 13.991-6.272 14-14a2 2 0 0 0-2-2zM24 44v-7.344l30.882-14.532A16 16 0 0 1 56 28v16c0 8.837-7.163 16-16 16s-16-7.163-16-16zm16.042 50.624L33.87 86h12.672l-6.5 8.624zM49.568 82H31l-5.726-8H26a8 8 0 0 0 8-8v-2.922a19.985 19.985 0 0 0 12 0V66a8 8 0 0 0 8 8h1.6l-6.032 8zM106 80H90.2a10.016 10.016 0 0 1 9.8-8h15.8a10.016 10.016 0 0 1-9.8 8z"/>
    </g>
</svg>
