<svg xmlns="http://www.w3.org/2000/svg" width="102" height="119" viewBox="0 0 102 119">
    <g fill="#000" fill-rule="evenodd">
        <path fill-rule="nonzero" d="M90.453 3.839h-7.698V0H67.358v3.839H59.66v5.758c0 3.174 2.591 5.758 5.774 5.758h2.995a7.678 7.678 0 0 0 4.703 3.566v2.727L51.24 28.926c.46-1.242.723-2.575.723-3.974v-5.758c0-6.352-5.178-11.517-11.547-11.517-6.368 0-11.547 5.165-11.547 11.517v5.758c0 1.399.264 2.732.724 3.974L6.894 21.382a5.22 5.22 0 0 0-1.657-.27C2.35 21.113 0 23.458 0 26.337v.61c0 1.8.955 3.505 2.492 4.447L25.02 45.218v62.266H17.32V119h61.585V99.806h-9.623V83.034c0-1.98-.6-3.884-1.74-5.503L55.812 60.815V45.218l17.321-10.63v3.8h-3.849v3.838H80.83v-3.839h-3.849v-6.163l1.357-.833a5.248 5.248 0 0 0 2.492-4.445v-.61c0-2.397-1.638-4.401-3.849-5.012v-2.401a7.683 7.683 0 0 0 4.703-3.566h2.995c3.183 0 5.774-2.584 5.774-5.758v-5.76zm-25.019 7.677a1.926 1.926 0 0 1-1.925-1.92V7.678h3.85v3.84h-1.925zm-32.717 7.678c0-4.235 3.452-7.678 7.698-7.678s7.698 3.443 7.698 7.678v5.758c0 4.234-3.452 7.677-7.698 7.677s-7.698-3.443-7.698-7.677v-5.758zm9.542 33.834l-1.844 1.839-1.844-1.84 1.663-16.569c.06.002.12.01.181.01.062 0 .121-.008.181-.01l1.663 16.57zm32.798 62.133H21.17v-3.838h30.792v-7.678h23.095v11.516zm-21.17-15.355h-5.774v7.678h-7.698v-35.81c0-.568.834-.854 1.181-.405l12.29 15.76v12.777zm23.094-72.86c0 .478-.252.927-.66 1.178L51.962 43.072v18.952L64.391 79.73a5.732 5.732 0 0 1 1.043 3.304v16.772h-7.698V85.713l-13.1-16.799a4.485 4.485 0 0 0-3.561-1.737c-2.487 0-4.509 2.017-4.509 4.497v35.81h-7.698V43.072l-24.36-14.95c-.407-.25-.659-.7-.659-1.176v-.61c0-.912.96-1.599 1.827-1.313L33.79 34.37c.812.57 1.7 1.03 2.646 1.378l-1.874 18.708 5.852 5.839 5.854-5.839-1.874-18.708c.945-.348 1.834-.81 2.646-1.378l28.115-9.347c.865-.29 1.825.401 1.825 1.313v.61zm1.925-15.43a3.848 3.848 0 0 1-3.85 3.839 3.848 3.848 0 0 1-3.848-3.839V3.84h7.698v7.677zm7.698-1.92c0 1.058-.865 1.92-1.925 1.92h-1.924V7.677h3.849v1.92z"/>
        <path d="M94.302 23.032h3.849v3.839H94.3zM90.453 26.871h3.849v3.839h-3.85zM94.302 30.71h3.849v3.838H94.3zM98.15 26.871H102v3.839h-3.85zM7.698 47.984h3.85v3.839h-3.85zM3.85 51.823h3.848v3.838H3.85zM7.698 55.661h3.85V59.5h-3.85zM11.547 51.823h3.85v3.838h-3.85zM15.396 1.92h3.85v3.838h-3.85zM11.547 5.758h3.85v3.839h-3.85zM15.396 9.597h3.85v3.838h-3.85zM19.245 5.758h3.85v3.839h-3.85z"/>
    </g>
</svg>
