<svg xmlns="http://www.w3.org/2000/svg" width="185" height="56" viewBox="0 0 185 56">
    <g fill="none" fill-rule="evenodd">
        <path fill="#00A651" fill-rule="nonzero" d="M28.074 45.191c-2.287 0-4.506-.438-6.59-1.304a17.163 17.163 0 0 1-5.584-3.721 17.058 17.058 0 0 1-5.04-12.125c0-2.278.44-4.485 1.305-6.562a17.09 17.09 0 0 1 3.735-5.562 17.163 17.163 0 0 1 5.583-3.721 17.097 17.097 0 0 1 6.588-1.304c2.287 0 4.506.438 6.591 1.304a17.116 17.116 0 0 1 5.583 3.721 17.024 17.024 0 0 1 3.736 5.564 16.92 16.92 0 0 1 1.308 6.563c0 2.279-.44 4.486-1.308 6.563a16.966 16.966 0 0 1-3.736 5.562 17.193 17.193 0 0 1-12.17 5.022zm-16.962-17.15c0 2.246.434 4.421 1.288 6.469a16.837 16.837 0 0 0 3.682 5.481 16.91 16.91 0 0 0 5.502 3.668 16.839 16.839 0 0 0 6.493 1.286c2.255 0 4.44-.432 6.493-1.286a16.91 16.91 0 0 0 5.502-3.668 16.807 16.807 0 0 0 3.683-5.481 16.664 16.664 0 0 0 1.29-6.469c0-2.245-.434-4.42-1.287-6.468a16.76 16.76 0 0 0-3.683-5.481 16.87 16.87 0 0 0-5.502-3.665 16.839 16.839 0 0 0-6.493-1.286c-2.254 0-4.44.432-6.493 1.286a16.949 16.949 0 0 0-5.502 3.665 16.853 16.853 0 0 0-3.682 5.481 16.61 16.61 0 0 0-1.291 6.468z"/>
        <path fill="#7F97A0" fill-rule="nonzero" d="M28.074.293C12.691.293.224 12.717.224 28.041c0 15.325 12.467 27.749 27.85 27.749 15.383 0 27.854-12.424 27.854-27.749 0-15.324-12.47-27.748-27.854-27.748zM45.76 45.66a25.028 25.028 0 0 1-8.11 5.408 24.955 24.955 0 0 1-9.572 1.89 25.01 25.01 0 0 1-9.571-1.89 24.996 24.996 0 0 1-8.11-5.408 24.92 24.92 0 0 1-5.429-8.08 24.696 24.696 0 0 1-1.898-9.535c0-3.377.676-6.598 1.898-9.534a24.889 24.889 0 0 1 5.428-8.08 25.028 25.028 0 0 1 8.11-5.408 24.955 24.955 0 0 1 9.572-1.89c3.39 0 6.624.672 9.571 1.89a24.996 24.996 0 0 1 8.111 5.408 24.92 24.92 0 0 1 5.428 8.08 24.696 24.696 0 0 1 1.898 9.534c0 3.378-.675 6.599-1.898 9.535a25 25 0 0 1-5.428 8.08z"/>
        <path fill="#00B948" d="M21.53 12.311a17.068 17.068 0 0 0-5.54 3.695l-5.6-5.58A25.028 25.028 0 0 1 18.5 5.02l3.03 7.292z"/>
        <path fill="#FFF" fill-rule="nonzero" d="M15.99 17.23l-6.832-6.806.615-.614a25.742 25.742 0 0 1 8.394-5.594l.806-.332 3.697 8.895-.803.332a16.161 16.161 0 0 0-5.259 3.505l-.618.614zm-4.358-6.794l4.373 4.355a17.879 17.879 0 0 1 4.396-2.93l-2.368-5.695c-2.35 1.07-4.5 2.5-6.4 4.27z"/>
        <path fill="#2A2829" d="M28.074 3.126v7.89c-2.32 0-4.53.46-6.54 1.295L18.503 5.02a24.957 24.957 0 0 1 9.571-1.893z"/>
        <path fill="#FFF" fill-rule="nonzero" d="M21.06 13.446l-3.696-8.898.803-.332a25.817 25.817 0 0 1 9.907-1.958h.872v9.626h-.872c-2.156 0-4.244.412-6.207 1.227l-.806.335zm-1.415-7.947l2.368 5.695a17.74 17.74 0 0 1 5.193-1.025v-6.16a24.092 24.092 0 0 0-7.56 1.49z"/>
        <path fill="#E5001D" d="M37.645 5.016l-3.03 7.292a17.027 17.027 0 0 0-6.54-1.295v-7.89c3.39.003 6.623.676 9.57 1.893z"/>
        <path fill="#FFF" fill-rule="nonzero" d="M35.088 13.446l-.806-.335a16.104 16.104 0 0 0-6.208-1.227h-.871V2.258h.871c3.433 0 6.767.658 9.908 1.958l.803.332-3.697 8.898zm-6.142-3.277a17.76 17.76 0 0 1 5.193 1.025L36.506 5.5a24.027 24.027 0 0 0-7.557-1.493v6.163h-.003z"/>
        <path fill="#2A2829" d="M45.76 10.424l-5.601 5.579a17.147 17.147 0 0 0-5.541-3.695l3.03-7.292a25.028 25.028 0 0 1 8.111 5.408z"/>
        <path fill="#FFF" fill-rule="nonzero" d="M40.156 17.23l-.616-.614a16.161 16.161 0 0 0-5.258-3.505l-.804-.332 3.697-8.895.807.332a25.711 25.711 0 0 1 8.393 5.594l.616.614-6.835 6.806zm-4.411-5.37a17.823 17.823 0 0 1 4.396 2.931l4.372-4.355a24.06 24.06 0 0 0-6.404-4.27l-2.364 5.695z"/>
        <path fill="#E5001D" d="M51.184 18.504l-7.32 3.022a16.96 16.96 0 0 0-3.708-5.523l5.6-5.58a24.874 24.874 0 0 1 5.428 8.08z"/>
        <path fill="#FFF" fill-rule="nonzero" d="M43.392 22.66l-.333-.802a16.104 16.104 0 0 0-3.519-5.242l-.616-.613 6.832-6.806.616.613a25.632 25.632 0 0 1 5.615 8.362l.333.803-8.928 3.686zm-2.017-6.642A17.802 17.802 0 0 1 44.32 20.4l5.716-2.359a23.885 23.885 0 0 0-4.286-6.379l-4.375 4.356z"/>
        <path fill="#2A2829" d="M53.085 28.041h-7.92c0-2.308-.462-4.51-1.3-6.515l7.32-3.022a24.713 24.713 0 0 1 1.9 9.537z"/>
        <path fill="#FFF" fill-rule="nonzero" d="M53.956 28.91h-9.663v-.869c0-2.145-.413-4.225-1.231-6.18l-.337-.803 8.932-3.686.333.8a25.55 25.55 0 0 1 1.966 9.87v.868zm-7.941-1.737h6.184a23.84 23.84 0 0 0-1.497-7.529l-5.716 2.359c.598 1.66.943 3.393 1.029 5.17z"/>
        <path fill="#E5001D" d="M53.085 28.041c0 3.378-.675 6.599-1.898 9.535l-7.32-3.022a16.85 16.85 0 0 0 1.3-6.515h7.918v.002z"/>
        <path fill="#FFF" fill-rule="nonzero" d="M51.657 38.711l-8.932-3.686.337-.803a15.933 15.933 0 0 0 1.23-6.18v-.869h9.664v.868c0 3.42-.66 6.741-1.966 9.87l-.333.8zm-6.671-4.634l5.716 2.359a23.691 23.691 0 0 0 1.497-7.53h-6.184a17.729 17.729 0 0 1-1.03 5.171z"/>
        <path fill="#2A2829" d="M51.184 37.576a24.889 24.889 0 0 1-5.428 8.08l-5.6-5.579a17.007 17.007 0 0 0 3.709-5.523l7.32 3.022z"/>
        <path fill="#FFF" fill-rule="nonzero" d="M45.76 46.886l-6.833-6.806.616-.613a16.073 16.073 0 0 0 3.519-5.242l.333-.803 8.931 3.686-.333.8a25.647 25.647 0 0 1-5.615 8.362l-.619.616zm-4.385-6.824l4.372 4.356a23.956 23.956 0 0 0 4.286-6.38l-5.716-2.358a17.735 17.735 0 0 1-2.942 4.382z"/>
        <g>
            <path fill="#00B948" d="M45.76 45.66a25.028 25.028 0 0 1-8.112 5.407l-3.03-7.292a17.068 17.068 0 0 0 5.54-3.695l5.601 5.58z"/>
            <path fill="#FFF" fill-rule="nonzero" d="M37.175 52.199l-3.697-8.895.804-.332a16.099 16.099 0 0 0 5.258-3.505l.616-.614 6.832 6.806-.616.614a25.742 25.742 0 0 1-8.393 5.594l-.804.332zm-1.43-7.977l2.367 5.695a23.989 23.989 0 0 0 6.404-4.27l-4.372-4.355a17.923 17.923 0 0 1-4.4 2.93z"/>
        </g>
        <g>
            <path fill="#E5001D" d="M37.645 51.064a24.955 24.955 0 0 1-9.57 1.89v-7.887c2.32 0 4.529-.46 6.54-1.295l3.03 7.292z"/>
            <path fill="#FFF" fill-rule="nonzero" d="M28.074 53.822h-.871v-9.626h.871c2.157 0 4.244-.412 6.208-1.227l.806-.335 3.697 8.898-.803.332a25.762 25.762 0 0 1-9.908 1.958zm.872-7.908v6.16a24.01 24.01 0 0 0 7.557-1.493l-2.367-5.695a17.84 17.84 0 0 1-5.19 1.028z"/>
        </g>
        <g>
            <path fill="#2A2829" d="M28.074 45.067v7.89a25.01 25.01 0 0 1-9.571-1.89l3.03-7.292c2.011.832 4.221 1.292 6.541 1.292z"/>
            <path fill="#FFF" fill-rule="nonzero" d="M28.946 53.822h-.872c-3.432 0-6.766-.658-9.907-1.958l-.803-.332 3.697-8.898.806.335a16.104 16.104 0 0 0 6.207 1.227h.872v9.626zm-9.3-3.241c2.42.9 4.954 1.401 7.557 1.493v-6.16a17.74 17.74 0 0 1-5.193-1.025l-2.365 5.692z"/>
        </g>
        <g>
            <path fill="#E5001D" d="M21.53 43.772l-3.03 7.292a24.996 24.996 0 0 1-8.11-5.408l5.6-5.579a17.1 17.1 0 0 0 5.54 3.695z"/>
            <path fill="#FFF" fill-rule="nonzero" d="M18.973 52.199l-.806-.332a25.711 25.711 0 0 1-8.394-5.594l-.615-.614 6.832-6.806.615.614a16.161 16.161 0 0 0 5.259 3.505l.803.332-3.694 8.895zm-7.34-6.552a24.06 24.06 0 0 0 6.403 4.27l2.368-5.695a17.907 17.907 0 0 1-4.396-2.93l-4.376 4.355z"/>
        </g>
        <g>
            <path fill="#2A2829" d="M15.99 40.077l-5.6 5.58a24.92 24.92 0 0 1-5.429-8.08l7.32-3.02a17.09 17.09 0 0 0 3.709 5.52z"/>
            <path fill="#FFF" fill-rule="nonzero" d="M10.39 46.886l-.617-.613a25.632 25.632 0 0 1-5.615-8.362l-.333-.803 8.929-3.683.333.8a16.092 16.092 0 0 0 3.518 5.239l.616.613-6.832 6.809zM6.114 38.04a23.885 23.885 0 0 0 4.286 6.38l4.372-4.356a17.802 17.802 0 0 1-2.941-4.38l-5.717 2.356z"/>
        </g>
        <g>
            <path fill="#E5001D" d="M12.284 34.557l-7.32 3.02a24.696 24.696 0 0 1-1.898-9.536h7.924a16.847 16.847 0 0 0 1.294 6.516z"/>
            <path fill="#FFF" fill-rule="nonzero" d="M4.491 38.711l-.333-.8a25.55 25.55 0 0 1-1.966-9.87v-.868h9.663v.868a16 16 0 0 0 1.229 6.184l.333.803-8.926 3.683zM3.95 28.91a23.84 23.84 0 0 0 1.496 7.529l5.716-2.359a17.768 17.768 0 0 1-1.029-5.173H3.95v.003z"/>
        </g>
        <g>
            <path fill="#2A2829" d="M12.284 21.523a16.903 16.903 0 0 0-1.297 6.516H3.064c0-3.378.675-6.599 1.897-9.535l7.323 3.019z"/>
            <path fill="#FFF" fill-rule="nonzero" d="M11.858 28.91H2.195v-.869c0-3.419.66-6.74 1.966-9.87l.333-.8 8.929 3.684-.333.803a16.01 16.01 0 0 0-1.229 6.183v.869h-.003zM3.95 27.173h6.186A17.594 17.594 0 0 1 11.166 22l-5.717-2.359a23.794 23.794 0 0 0-1.5 7.532z"/>
        </g>
        <g>
            <path fill="#E5001D" d="M15.99 16.003a17.074 17.074 0 0 0-3.71 5.52l-7.319-3.02a24.889 24.889 0 0 1 5.428-8.08l5.6 5.58z"/>
            <path fill="#FFF" fill-rule="nonzero" d="M12.754 22.658l-8.93-3.683.334-.803A25.647 25.647 0 0 1 9.773 9.81l.616-.613 6.832 6.806-.616.613a16.092 16.092 0 0 0-3.518 5.239l-.333.803zM6.115 18.04l5.717 2.359a17.83 17.83 0 0 1 2.941-4.38l-4.372-4.355a23.777 23.777 0 0 0-4.286 6.376z"/>
        </g>
        <path fill="#00A651" fill-rule="nonzero" d="M28.074 45.191c-2.287 0-4.506-.438-6.59-1.304a17.163 17.163 0 0 1-5.584-3.721 17.058 17.058 0 0 1-5.04-12.125c0-2.278.44-4.485 1.305-6.562a17.09 17.09 0 0 1 3.735-5.562 17.163 17.163 0 0 1 5.583-3.721 17.097 17.097 0 0 1 6.588-1.304c2.287 0 4.506.438 6.591 1.304a17.116 17.116 0 0 1 5.583 3.721 17.024 17.024 0 0 1 3.736 5.564 16.92 16.92 0 0 1 1.308 6.563c0 2.279-.44 4.486-1.308 6.563a16.966 16.966 0 0 1-3.736 5.562 17.193 17.193 0 0 1-12.17 5.022zm0-34.05c-2.254 0-4.44.432-6.493 1.286a16.949 16.949 0 0 0-5.502 3.665 16.853 16.853 0 0 0-3.682 5.481 16.727 16.727 0 0 0-1.288 6.468c0 2.246.434 4.421 1.288 6.469a16.837 16.837 0 0 0 3.682 5.481 16.91 16.91 0 0 0 5.502 3.668 16.839 16.839 0 0 0 6.493 1.286c2.255 0 4.44-.432 6.493-1.286a16.91 16.91 0 0 0 5.502-3.668 16.807 16.807 0 0 0 3.683-5.481 16.664 16.664 0 0 0 1.29-6.469c0-2.245-.434-4.42-1.287-6.468-.851-2.053-2.091-3.899-3.683-5.484a16.87 16.87 0 0 0-5.502-3.665 16.906 16.906 0 0 0-6.496-1.283z"/>
        <g>
            <path fill="#7F97A0" d="M45.164 28.041c0 2.309-.46 4.51-1.3 6.516a16.96 16.96 0 0 1-3.708 5.523 17.147 17.147 0 0 1-5.541 3.695 17.027 17.027 0 0 1-6.54 1.295 17.068 17.068 0 0 1-12.082-4.99 17.074 17.074 0 0 1-3.71-5.52 16.903 16.903 0 0 1-1.296-6.516c0-2.31.461-4.512 1.297-6.515a16.995 16.995 0 0 1 3.709-5.52 17.147 17.147 0 0 1 5.54-3.695 17.027 17.027 0 0 1 6.541-1.295 17.068 17.068 0 0 1 12.082 4.99 17.007 17.007 0 0 1 3.709 5.523c.838 2 1.3 4.201 1.3 6.51z"/>
            <path fill="#FFF" fill-rule="nonzero" d="M28.074 45.935c-2.388 0-4.702-.456-6.876-1.36a17.923 17.923 0 0 1-5.824-3.882 17.83 17.83 0 0 1-3.896-5.801 17.71 17.71 0 0 1-1.362-6.85c0-2.377.458-4.682 1.362-6.85a17.861 17.861 0 0 1 3.896-5.802 17.891 17.891 0 0 1 5.824-3.882 17.822 17.822 0 0 1 6.876-1.36c2.389 0 4.7.456 6.877 1.36 2.183.9 4.143 2.208 5.823 3.882a17.75 17.75 0 0 1 3.897 5.804 17.673 17.673 0 0 1 1.365 6.845c0 2.376-.458 4.681-1.365 6.847a17.768 17.768 0 0 1-3.897 5.801 17.907 17.907 0 0 1-5.823 3.882 17.783 17.783 0 0 1-6.877 1.366zm0-34.05c-2.156 0-4.244.411-6.207 1.226a16.142 16.142 0 0 0-5.262 3.505 16.092 16.092 0 0 0-4.75 11.423 16 16 0 0 0 1.229 6.183 16.03 16.03 0 0 0 3.518 5.239 16.161 16.161 0 0 0 5.259 3.505 16.104 16.104 0 0 0 6.207 1.227c2.157 0 4.245-.412 6.208-1.227a16.19 16.19 0 0 0 5.261-3.505 16.073 16.073 0 0 0 3.519-5.242 15.95 15.95 0 0 0 1.234-6.183c0-2.149-.413-4.226-1.231-6.181a16.085 16.085 0 0 0-3.519-5.245 16.161 16.161 0 0 0-11.466-4.726z"/>
        </g>
        <path fill="#00A651" d="M28.077 28.166h-.003v-.249z"/>
        <path fill="#FFF" d="M33.782 30.519a6.21 6.21 0 0 1-5.708 3.724 6.17 6.17 0 0 1-2.385-.471 6.26 6.26 0 0 1-3.376-3.363 6.143 6.143 0 0 1-.47-2.373c0-.827.158-1.624.473-2.377a6.19 6.19 0 0 1 1.353-2.012 6.21 6.21 0 0 1 4.405-1.816c.83 0 1.63.157 2.386.471a6.26 6.26 0 0 1 2.022 1.348c.556.554.99 1.194 1.303 1.911h5.22c-.14-.61-.328-1.208-.571-1.792A11.041 11.041 0 0 0 36 20.145a11.183 11.183 0 0 0-7.924-3.27c-1.49 0-2.932.286-4.292.85a11.145 11.145 0 0 0-3.634 2.42 11.116 11.116 0 0 0-3.28 7.894c0 1.481.285 2.921.85 4.275a11.098 11.098 0 0 0 2.43 3.62 11.183 11.183 0 0 0 7.923 3.272c1.49 0 2.933-.287 4.292-.85a11.145 11.145 0 0 0 3.635-2.421 11.117 11.117 0 0 0 3.004-5.416h-5.223z"/>
        <path fill="#00A651" d="M28.077 28.166h-.003v-.249z"/>
        <path fill="#00A651" d="M28.077 28.166h-.003v-.249z"/>
        <path fill="#00A651" d="M28.077 28.166h-.003v-.249z"/>
        <g fill="#142B3A">
            <path d="M72.938 12.904h-7.01V7.668h21.025v5.236h-7.007v20.948h-7.01V12.904z"/>
            <path fill-rule="nonzero" d="M90.263 16.397c0-5.82 2.921-8.729 8.763-8.729h3.503c5.842 0 8.762 2.91 8.762 8.729v8.729c0 5.82-2.92 8.729-8.762 8.729h-3.503c-5.842 0-8.763-2.91-8.763-8.73v-8.728zm8.763-3.493c-1.17 0-1.752 1.164-1.752 3.49v8.729c0 2.329.583 3.49 1.752 3.49h3.503c1.17 0 1.752-1.164 1.752-3.49v-8.729c0-2.326-.583-3.49-1.752-3.49h-3.503zM123.361 33.852h-7.01V7.668h12.266c5.841 0 8.762 2.329 8.762 6.984v1.745c0 4.655-2.92 6.984-8.762 6.984h-5.256v10.47zm0-15.71h5.256c1.169 0 1.751-.58 1.751-1.745v-1.745c0-1.165-.582-1.745-1.751-1.745h-5.256v5.235z"/>
            <path d="M160.138 33.852h-7.01V12.904h-3.504V7.668h10.514z"/>
            <path fill-rule="nonzero" d="M165.2 16.397c0-5.82 2.921-8.729 8.762-8.729h1.752c5.842 0 8.763 2.91 8.763 8.729v8.729c0 5.82-2.921 8.729-8.763 8.729h-1.752c-5.841 0-8.762-2.91-8.762-8.73v-8.728zm8.762-3.493c-1.168 0-1.751 1.164-1.751 3.49v8.729c0 2.329.583 3.49 1.751 3.49h1.752c1.17 0 1.752-1.164 1.752-3.49v-8.729c0-2.326-.583-3.49-1.752-3.49h-1.752z"/>
            <g>
                <path d="M70.181 48.356c.405 0 .607-.403.607-1.212h2.43c0 2.017-1.011 3.025-3.037 3.025h-1.216c-2.026 0-3.037-1.008-3.037-3.025v-3.025c0-2.018 1.011-3.026 3.037-3.026h1.216c2.026 0 3.037 1.008 3.037 3.026h-2.43c0-.806-.202-1.212-.607-1.212h-1.216c-.405 0-.607.403-.607 1.212v3.025c0 .806.202 1.212.607 1.212h1.216z"/>
                <path fill-rule="nonzero" d="M78.107 48.96l-.407 1.212h-2.43l3.037-9.079h2.43l3.036 9.079h-2.43l-.407-1.212h-2.829zm1.416-4.237l-.809 2.42h1.615l-.806-2.42z"/>
                <path d="M90.076 41.093c2.025 0 3.037.806 3.037 2.421h-2.43c0-.403-.203-.604-.607-.604h-1.217c-.404 0-.606.201-.606.604v.605c0 .402.202.604.606.604h1.217c2.025 0 3.037.806 3.037 2.42v.605c0 1.615-1.012 2.42-3.037 2.42h-1.217c-2.025 0-3.036-.805-3.036-2.42h2.43c0 .403.202.605.606.605h1.217c.404 0 .607-.202.607-.605v-.604c0-.403-.203-.605-.607-.605h-1.217c-2.025 0-3.036-.806-3.036-2.42v-.605c0-1.615 1.011-2.42 3.036-2.42h1.217zM98.505 50.172h-2.43v-9.079h2.43zM103.897 45.837v4.332h-2.43V41.09h2.43l2.43 4.332V41.09h2.43v9.079h-2.43z"/>
                <path fill-rule="nonzero" d="M111.72 44.119c0-2.018 1.011-3.026 3.037-3.026h1.216c2.025 0 3.037 1.008 3.037 3.026v3.025c0 2.017-1.012 3.025-3.037 3.025h-1.216c-2.026 0-3.037-1.008-3.037-3.025v-3.025zm3.037-1.212c-.405 0-.607.403-.607 1.212v3.025c0 .806.202 1.212.607 1.212h1.216c.404 0 .607-.403.607-1.212v-3.025c0-.806-.203-1.212-.607-1.212h-1.216z"/>
                <path d="M129.842 46.54v3.632h-2.43v-9.079h2.43v3.633h2.43v-3.633h2.43v9.079h-2.43v-3.633z"/>
                <path fill-rule="nonzero" d="M137.661 44.119c0-2.018 1.012-3.026 3.037-3.026h1.217c2.025 0 3.036 1.008 3.036 3.026v3.025c0 2.017-1.01 3.025-3.036 3.025h-1.217c-2.025 0-3.037-1.008-3.037-3.025v-3.025zm3.04-1.212c-.404 0-.607.403-.607 1.212v3.025c0 .806.203 1.212.607 1.212h1.217c.404 0 .606-.403.606-1.212v-3.025c0-.806-.202-1.212-.606-1.212H140.7z"/>
                <path d="M149.737 42.907h-2.43V41.09h7.29v1.817h-2.43v7.262h-2.43v-7.262zM159.99 48.356h4.86v1.816h-7.29v-9.079h7.29v1.817h-4.86v1.816h3.036v1.816h-3.037zM167.809 41.093h2.43v7.263h4.253v1.816h-6.683zM181.707 41.093c2.026 0 3.037.806 3.037 2.421h-2.43c0-.403-.202-.604-.607-.604h-1.216c-.405 0-.607.201-.607.604v.605c0 .402.202.604.607.604h1.216c2.026 0 3.037.806 3.037 2.42v.605c0 1.615-1.011 2.42-3.037 2.42h-1.216c-2.025 0-3.037-.805-3.037-2.42h2.43c0 .403.202.605.607.605h1.216c.405 0 .607-.202.607-.605v-.604c0-.403-.202-.605-.607-.605h-1.216c-2.025 0-3.037-.806-3.037-2.42v-.605c0-1.615 1.012-2.42 3.037-2.42h1.216z"/>
            </g>
        </g>
        <g fill="#7F97A0">
            <path d="M11.644 6.27L6.222 11.67 5.288 5.61zM44.507 49.81l5.422-5.401.931 6.062z"/>
        </g>
    </g>
</svg>
